<svg width="45" height="154" viewBox="0 0 45 154" fill="none" xmlns="http://www.w3.org/2000/svg">
<rect width="45" height="154" fill="#1E1E1E"/>
<path d="M0.5 3.573V150.9C0.5 150.9 32.8313 156.75 39.7216 150.9C46.6118 145.049 45.5518 10.4873 39.7216 3.573C33.8913 -3.34127 0.5 3.573 0.5 3.573Z" fill="#3423CF" stroke="black"/>
<path d="M29.5 138.253V140.1L14.9545 134.759V132.941L29.5 127.6V129.447L17.2557 133.793V133.907L29.5 138.253ZM23.8182 137.572V130.128H25.3807V137.572H23.8182ZM29.5 125.334H14.9545V123.658H20.3239V123.516C20.1345 123.393 19.893 123.223 19.5994 123.005C19.3011 122.782 19.036 122.465 18.804 122.053C18.5672 121.636 18.4489 121.073 18.4489 120.363C18.4489 119.444 18.6785 118.635 19.1378 117.934C19.5971 117.233 20.2481 116.686 21.0909 116.293C21.9337 115.9 22.928 115.704 24.0739 115.704C25.2292 115.704 26.2306 115.9 27.0781 116.293C27.9209 116.686 28.5743 117.231 29.0384 117.927C29.4976 118.623 29.7273 119.425 29.7273 120.334C29.7273 121.035 29.6113 121.596 29.3793 122.018C29.1425 122.439 28.875 122.763 28.5767 122.991C28.2737 123.218 28.0227 123.393 27.8239 123.516V123.715H29.5V125.334ZM24.0455 123.687C24.8693 123.687 25.5961 123.566 26.2259 123.324C26.8509 123.083 27.3409 122.73 27.696 122.266C28.0464 121.802 28.2216 121.234 28.2216 120.562C28.2216 119.861 28.0369 119.276 27.6676 118.807C27.2936 118.334 26.7917 117.979 26.1619 117.742C25.5275 117.501 24.822 117.38 24.0455 117.38C23.2784 117.38 22.5871 117.498 21.9716 117.735C21.3513 117.967 20.8613 118.32 20.5014 118.793C20.1368 119.262 19.9545 119.851 19.9545 120.562C19.9545 121.243 20.1274 121.816 20.473 122.28C20.8139 122.744 21.2921 123.095 21.9077 123.332C22.5185 123.568 23.2311 123.687 24.0455 123.687ZM29.7273 108.708C29.7273 109.693 29.4929 110.557 29.0241 111.3C28.5554 112.039 27.8996 112.617 27.0568 113.033C26.214 113.445 25.2292 113.651 24.1023 113.651C22.9659 113.651 21.974 113.445 21.1264 113.033C20.2789 112.617 19.6207 112.039 19.152 111.3C18.6832 110.557 18.4489 109.693 18.4489 108.708C18.4489 107.723 18.6832 106.861 19.152 106.123C19.6207 105.379 20.2789 104.802 21.1264 104.39C21.974 103.973 22.9659 103.765 24.1023 103.765C25.2292 103.765 26.214 103.973 27.0568 104.39C27.8996 104.802 28.5554 105.379 29.0241 106.123C29.4929 106.861 29.7273 107.723 29.7273 108.708ZM28.2216 108.708C28.2216 107.96 28.0298 107.344 27.6463 106.861C27.2628 106.378 26.7585 106.021 26.1335 105.789C25.5085 105.557 24.8314 105.441 24.1023 105.441C23.3731 105.441 22.6937 105.557 22.0639 105.789C21.4342 106.021 20.9252 106.378 20.5369 106.861C20.1487 107.344 19.9545 107.96 19.9545 108.708C19.9545 109.456 20.1487 110.072 20.5369 110.555C20.9252 111.038 21.4342 111.395 22.0639 111.627C22.6937 111.859 23.3731 111.975 24.1023 111.975C24.8314 111.975 25.5085 111.859 26.1335 111.627C26.7585 111.395 27.2628 111.038 27.6463 110.555C28.0298 110.072 28.2216 109.456 28.2216 108.708ZM25.0398 94.3312H18.5909V92.6551H29.5V94.3312H27.6534V94.4448C28.2074 94.7005 28.6785 95.0983 29.0668 95.638C29.4503 96.1778 29.642 96.8596 29.642 97.6835C29.642 98.3653 29.4929 98.9714 29.1946 99.5017C28.8916 100.032 28.437 100.449 27.831 100.752C27.2202 101.055 26.4508 101.206 25.5227 101.206H18.5909V99.5301H25.4091C26.2045 99.5301 26.839 99.3075 27.3125 98.8625C27.786 98.4126 28.0227 97.8397 28.0227 97.1437C28.0227 96.727 27.9162 96.3033 27.7031 95.8724C27.4901 95.4368 27.1634 95.0722 26.723 94.7787C26.2827 94.4804 25.7216 94.3312 25.0398 94.3312ZM18.5909 84.8408H20.0114V90.4942H18.5909V84.8408ZM15.9773 88.8465L15.9773 87.1703H26.375C26.8485 87.1703 27.2036 87.1017 27.4403 86.9644C27.6723 86.8223 27.8286 86.6424 27.9091 86.4246C27.9848 86.2021 28.0227 85.9677 28.0227 85.7215C28.0227 85.5368 28.0133 85.3853 27.9943 85.2669C27.9706 85.1486 27.9517 85.0539 27.9375 84.9828L29.4432 84.6419C29.4858 84.7556 29.5284 84.9142 29.571 85.1178C29.6184 85.3214 29.642 85.5794 29.642 85.8919C29.642 86.3654 29.5402 86.8294 29.3366 87.284C29.133 87.7338 28.8229 88.1078 28.4062 88.4061C27.9896 88.6997 27.464 88.8465 26.8295 88.8465H15.9773ZM29.5 76.6945H18.5909L18.5909 75.0752H20.2955V74.9331C19.7131 74.7059 19.2609 74.3389 18.9389 73.8323C18.6122 73.3256 18.4489 72.7172 18.4489 72.007C18.4489 71.2873 18.6122 70.6883 18.9389 70.2101C19.2609 69.7272 19.7131 69.3507 20.2955 69.0809V68.9672C19.732 68.6879 19.2846 68.2688 18.9531 67.7101C18.617 67.1514 18.4489 66.4814 18.4489 65.7002C18.4489 64.7248 18.7543 63.927 19.3651 63.3067C19.9711 62.6864 20.9157 62.3763 22.1989 62.3763H29.5V64.0524H22.1989C21.3939 64.0524 20.8187 64.2726 20.473 64.713C20.1274 65.1533 19.9545 65.6718 19.9545 66.2684C19.9545 67.0354 20.1866 67.6296 20.6506 68.051C21.1098 68.4724 21.6922 68.6831 22.3977 68.6831H29.5V70.3877H22.0284C21.4081 70.3877 20.9086 70.5889 20.5298 70.9914C20.1463 71.3938 19.9545 71.9123 19.9545 72.5468C19.9545 72.9824 20.0705 73.3896 20.3026 73.7684C20.5346 74.1424 20.8565 74.4454 21.2685 74.6774C21.6757 74.9047 22.1468 75.0184 22.6818 75.0184H29.5V76.6945ZM29.7273 54.7378C29.7273 55.7889 29.4953 56.6957 29.0312 57.458C28.5625 58.2156 27.9091 58.8003 27.071 59.2122C26.2282 59.6194 25.2481 59.823 24.1307 59.823C23.0133 59.823 22.0284 59.6194 21.1761 59.2122C20.3191 58.8003 19.6515 58.2274 19.1733 57.4935C18.6903 56.7549 18.4489 55.8931 18.4489 54.9083C18.4489 54.3401 18.5436 53.779 18.733 53.225C18.9223 52.6711 19.2301 52.1668 19.6562 51.7122C20.0777 51.2577 20.6364 50.8955 21.3324 50.6256C22.0284 50.3557 22.8854 50.2208 23.9034 50.2208H24.6136V58.6299H23.1648V51.9253C22.5492 51.9253 22 52.0484 21.517 52.2946C21.0341 52.5361 20.6529 52.8818 20.3736 53.3316C20.0942 53.7766 19.9545 54.3022 19.9545 54.9083C19.9545 55.5759 20.1203 56.1535 20.4517 56.6412C20.7784 57.1242 21.2045 57.4959 21.7301 57.7563C22.2557 58.0167 22.8191 58.1469 23.4205 58.1469H24.3864C25.2102 58.1469 25.9086 58.0049 26.4815 57.7208C27.0497 57.4319 27.483 57.0318 27.7812 56.5205C28.0748 56.0091 28.2216 55.4149 28.2216 54.7378C28.2216 54.2975 28.16 53.8997 28.0369 53.5446C27.9091 53.1848 27.7197 52.8747 27.4687 52.6142C27.2131 52.3538 26.8958 52.1526 26.517 52.0105L26.9716 50.3912C27.5208 50.5617 28.0038 50.8481 28.4205 51.2506C28.8324 51.6531 29.1544 52.1502 29.3864 52.7421C29.6136 53.3339 29.7273 53.9992 29.7273 54.7378Z" fill="white"/>
<path d="M19 11.6114C23 13.6114 31.1054 19.1114 31.5 22.1114C31.8946 25.1114 24 33.1114 21.5 35.6114C21.5 35.6114 19 34.4921 19 33.1114C19 30.1114 27.1824 25.1114 26.5 22.1114C26.0451 20.1114 19 17.1114 16.5 15.1114C15.1884 14.0621 17.4976 10.8602 19 11.6114Z" fill="#B17E36" stroke="black"/>
</svg>
