<svg width="172" height="55" viewBox="0 0 172 55" fill="none" xmlns="http://www.w3.org/2000/svg">
<path d="M3.87427 44.5L165.645 44.5C165.645 44.5 172.069 12.1687 165.645 5.27844C159.221 -1.61183 11.4664 -0.551782 3.87427 5.27844C-3.71787 11.1087 3.87427 44.5 3.87427 44.5Z" fill="#EA6200" stroke="black"/>
<path d="M28.46 31.5H24.3L23.44 29.14H18.8L17.96 31.5H13.8L19.46 16.3H22.8L28.46 31.5ZM22.34 26.12L21.12 22.76L19.92 26.12H22.34ZM40.9339 27.94C40.7739 28.7133 40.4072 29.3667 39.8339 29.9C39.2739 30.4333 38.5805 30.8333 37.7539 31.1C36.9272 31.3667 36.0472 31.5 35.1139 31.5H29.7539V16.3H35.1139C36.0739 16.3 36.9605 16.5 37.7739 16.9C38.6005 17.2867 39.2472 17.8067 39.7139 18.46C40.1939 19.1133 40.4339 19.82 40.4339 20.58C40.4339 21.7533 39.8472 22.8067 38.6739 23.74C39.3672 24.1 39.9272 24.5933 40.3539 25.22C40.7939 25.8467 41.0139 26.52 41.0139 27.24C41.0139 27.5067 40.9872 27.74 40.9339 27.94ZM36.7339 21.08C36.7339 20.8 36.5805 20.56 36.2739 20.36C35.9672 20.1467 35.5805 20.04 35.1139 20.04H33.7139L33.6939 21.98H35.1139C36.1939 21.98 36.7339 21.68 36.7339 21.08ZM37.0739 26.78C37.1005 26.5133 36.9872 26.2867 36.7339 26.1C36.4805 25.9133 36.1205 25.82 35.6539 25.82H33.6939L33.7139 27.76H35.6539C36.0539 27.76 36.3872 27.6667 36.6539 27.48C36.9205 27.2933 37.0605 27.06 37.0739 26.78ZM58.0826 23.9C58.0826 25.2867 57.7293 26.58 57.0226 27.78C56.3159 28.9667 55.3626 29.92 54.1626 30.64C52.9626 31.3467 51.6626 31.7 50.2626 31.7C48.8493 31.7 47.5426 31.3467 46.3426 30.64C45.1426 29.92 44.1893 28.9667 43.4826 27.78C42.7759 26.58 42.4226 25.2867 42.4226 23.9C42.4226 22.5133 42.7759 21.2267 43.4826 20.04C44.1893 18.84 45.1426 17.8867 46.3426 17.18C47.5426 16.46 48.8493 16.1 50.2626 16.1C51.6626 16.1 52.9626 16.46 54.1626 17.18C55.3626 17.8867 56.3159 18.84 57.0226 20.04C57.7293 21.2267 58.0826 22.5133 58.0826 23.9ZM54.2426 23.9C54.2426 23.22 54.0626 22.58 53.7026 21.98C53.3426 21.3667 52.8559 20.88 52.2426 20.52C51.6293 20.1467 50.9693 19.96 50.2626 19.96C49.5559 19.96 48.8959 20.1467 48.2826 20.52C47.6693 20.88 47.1826 21.3667 46.8226 21.98C46.4626 22.58 46.2826 23.22 46.2826 23.9C46.2826 24.58 46.4626 25.2267 46.8226 25.84C47.1826 26.44 47.6693 26.9267 48.2826 27.3C48.8959 27.66 49.5559 27.84 50.2626 27.84C50.9693 27.84 51.6293 27.66 52.2426 27.3C52.8559 26.9267 53.3426 26.44 53.7026 25.84C54.0626 25.2267 54.2426 24.58 54.2426 23.9ZM73.9534 24.4C73.9534 25.8533 73.6267 27.1333 72.9734 28.24C72.3201 29.3467 71.4401 30.2 70.3334 30.8C69.2267 31.4 68.0267 31.7 66.7334 31.7C65.4267 31.7 64.2201 31.4 63.1134 30.8C62.0067 30.2 61.1267 29.3467 60.4734 28.24C59.8201 27.1333 59.4934 25.8533 59.4934 24.4L59.4734 16.32L63.4134 16.3V24.6C63.4134 25.2267 63.5667 25.7933 63.8734 26.3C64.1801 26.7933 64.5867 27.18 65.0934 27.46C65.6001 27.7267 66.1467 27.86 66.7334 27.86C67.3201 27.86 67.8667 27.7267 68.3734 27.46C68.8801 27.18 69.2867 26.7933 69.5934 26.3C69.9001 25.7933 70.0534 25.2267 70.0534 24.6V16.3L73.9734 16.32L73.9534 24.4ZM87.7918 20.18H83.3318V31.5H79.4518V20.18H74.9718V16.3H87.7918V20.18ZM113.542 31.5H109.662V23.8L104.822 30.98L99.962 23.8V31.5H96.082V16.3H99.962L104.822 24.24L109.662 16.3H113.542V31.5ZM124.895 31.5H115.535V16.3H124.895V20.18H119.415V21.96H124.895V25.84H119.415V27.62H124.895V31.5Z" fill="white"/>
<path d="M157.846 20.2917C155.374 24.0181 148.927 31.3928 145.901 31.4189C142.875 31.445 135.897 22.6342 133.72 19.8482C133.72 19.8482 135.136 17.5032 136.506 17.6715C139.484 18.0371 143.45 26.7678 146.51 26.4562C148.551 26.2484 152.387 19.6214 154.677 17.3838C155.878 16.2098 158.775 18.8921 157.846 20.2917Z" fill="#F2C587" stroke="black"/>
</svg>
