<svg width="174" height="55" viewBox="0 0 174 55" fill="none" xmlns="http://www.w3.org/2000/svg">
<path d="M150.427 0.5L3.10023 0.5C3.10023 0.5 -2.75029 32.8313 3.10023 39.7216C8.95076 46.6118 143.513 45.5518 150.427 39.7216C157.341 33.8913 150.427 0.5 150.427 0.5Z" fill="#3423CF" stroke="black"/>
<path d="M17.858 30.5H16.0114L21.3523 15.9545H23.1705L28.5114 30.5H26.6648L22.3182 18.2557H22.2045L17.858 30.5ZM18.5398 24.8182H25.983V26.3807H18.5398V24.8182ZM30.777 30.5V15.9545H32.4531V21.3239H32.5952C32.7183 21.1345 32.8887 20.893 33.1065 20.5994C33.3291 20.3011 33.6463 20.036 34.0582 19.804C34.4749 19.5672 35.0384 19.4489 35.7486 19.4489C36.6671 19.4489 37.4768 19.6785 38.1776 20.1378C38.8783 20.5971 39.4252 21.2481 39.8182 22.0909C40.2112 22.9337 40.4077 23.928 40.4077 25.0739C40.4077 26.2292 40.2112 27.2306 39.8182 28.0781C39.4252 28.9209 38.8807 29.5743 38.1847 30.0384C37.4886 30.4976 36.6861 30.7273 35.777 30.7273C35.0762 30.7273 34.5152 30.6113 34.0938 30.3793C33.6723 30.1425 33.348 29.875 33.1207 29.5767C32.8935 29.2737 32.7183 29.0227 32.5952 28.8239H32.3963V30.5H30.777ZM32.4247 25.0455C32.4247 25.8693 32.5455 26.5961 32.7869 27.2259C33.0284 27.8509 33.3812 28.3409 33.8452 28.696C34.3092 29.0464 34.8774 29.2216 35.5497 29.2216C36.2505 29.2216 36.8352 29.0369 37.304 28.6676C37.7775 28.2936 38.1326 27.7917 38.3693 27.1619C38.6108 26.5275 38.7315 25.822 38.7315 25.0455C38.7315 24.2784 38.6132 23.5871 38.3764 22.9716C38.1444 22.3513 37.7917 21.8613 37.3182 21.5014C36.8494 21.1368 36.2599 20.9545 35.5497 20.9545C34.8679 20.9545 34.295 21.1274 33.831 21.473C33.367 21.8139 33.0166 22.2921 32.7798 22.9077C32.5431 23.5185 32.4247 24.2311 32.4247 25.0455ZM47.4034 30.7273C46.4186 30.7273 45.5545 30.4929 44.8111 30.0241C44.0724 29.5554 43.4948 28.8996 43.0781 28.0568C42.6662 27.214 42.4602 26.2292 42.4602 25.1023C42.4602 23.9659 42.6662 22.974 43.0781 22.1264C43.4948 21.2789 44.0724 20.6207 44.8111 20.152C45.5545 19.6832 46.4186 19.4489 47.4034 19.4489C48.3883 19.4489 49.25 19.6832 49.9886 20.152C50.732 20.6207 51.3097 21.2789 51.7216 22.1264C52.1383 22.974 52.3466 23.9659 52.3466 25.1023C52.3466 26.2292 52.1383 27.214 51.7216 28.0568C51.3097 28.8996 50.732 29.5554 49.9886 30.0241C49.25 30.4929 48.3883 30.7273 47.4034 30.7273ZM47.4034 29.2216C48.1515 29.2216 48.767 29.0298 49.25 28.6463C49.733 28.2628 50.0904 27.7585 50.3224 27.1335C50.5545 26.5085 50.6705 25.8314 50.6705 25.1023C50.6705 24.3731 50.5545 23.6937 50.3224 23.0639C50.0904 22.4342 49.733 21.9252 49.25 21.5369C48.767 21.1487 48.1515 20.9545 47.4034 20.9545C46.6553 20.9545 46.0398 21.1487 45.5568 21.5369C45.0739 21.9252 44.7164 22.4342 44.4844 23.0639C44.2524 23.6937 44.1364 24.3731 44.1364 25.1023C44.1364 25.8314 44.2524 26.5085 44.4844 27.1335C44.7164 27.7585 45.0739 28.2628 45.5568 28.6463C46.0398 29.0298 46.6553 29.2216 47.4034 29.2216ZM61.7802 26.0398V19.5909H63.4563V30.5H61.7802V28.6534H61.6665C61.4109 29.2074 61.0131 29.6785 60.4734 30.0668C59.9336 30.4503 59.2518 30.642 58.4279 30.642C57.7461 30.642 57.14 30.4929 56.6097 30.1946C56.0794 29.8916 55.6628 29.437 55.3597 28.831C55.0567 28.2202 54.9052 27.4508 54.9052 26.5227V19.5909H56.5813V26.4091C56.5813 27.2045 56.8039 27.839 57.2489 28.3125C57.6987 28.786 58.2717 29.0227 58.9677 29.0227C59.3844 29.0227 59.8081 28.9162 60.239 28.7031C60.6746 28.4901 61.0392 28.1634 61.3327 27.723C61.631 27.2827 61.7802 26.7216 61.7802 26.0398ZM71.2706 19.5909V21.0114H65.6172V19.5909H71.2706ZM67.2649 16.9773H68.9411V27.375C68.9411 27.8485 69.0097 28.2036 69.147 28.4403C69.2891 28.6723 69.469 28.8286 69.6868 28.9091C69.9093 28.9848 70.1437 29.0227 70.3899 29.0227C70.5746 29.0227 70.7261 29.0133 70.8445 28.9943C70.9628 28.9706 71.0575 28.9517 71.1286 28.9375L71.4695 30.4432C71.3558 30.4858 71.1972 30.5284 70.9936 30.571C70.79 30.6184 70.532 30.642 70.2195 30.642C69.746 30.642 69.282 30.5402 68.8274 30.3366C68.3776 30.133 68.0036 29.8229 67.7053 29.4062C67.4117 28.9896 67.2649 28.464 67.2649 27.8295V16.9773ZM79.4169 30.5V19.5909H81.0362V21.2955H81.1783C81.4055 20.7131 81.7725 20.2609 82.2791 19.9389C82.7857 19.6122 83.3942 19.4489 84.1044 19.4489C84.8241 19.4489 85.4231 19.6122 85.9013 19.9389C86.3842 20.2609 86.7607 20.7131 87.0305 21.2955H87.1442C87.4235 20.732 87.8426 20.2846 88.4013 19.9531C88.96 19.617 89.63 19.4489 90.4112 19.4489C91.3866 19.4489 92.1844 19.7543 92.8047 20.3651C93.425 20.9711 93.7351 21.9157 93.7351 23.1989V30.5H92.0589V23.1989C92.0589 22.3939 91.8388 21.8187 91.3984 21.473C90.9581 21.1274 90.4396 20.9545 89.843 20.9545C89.076 20.9545 88.4818 21.1866 88.0604 21.6506C87.639 22.1098 87.4283 22.6922 87.4283 23.3977V30.5H85.7237V23.0284C85.7237 22.4081 85.5225 21.9086 85.12 21.5298C84.7176 21.1463 84.1991 20.9545 83.5646 20.9545C83.129 20.9545 82.7218 21.0705 82.343 21.3026C81.969 21.5346 81.666 21.8565 81.4339 22.2685C81.2067 22.6757 81.093 23.1468 81.093 23.6818V30.5H79.4169ZM101.374 30.7273C100.322 30.7273 99.4157 30.4953 98.6534 30.0312C97.8958 29.5625 97.3111 28.9091 96.8991 28.071C96.492 27.2282 96.2884 26.2481 96.2884 25.1307C96.2884 24.0133 96.492 23.0284 96.8991 22.1761C97.3111 21.3191 97.884 20.6515 98.6179 20.1733C99.3565 19.6903 100.218 19.4489 101.203 19.4489C101.771 19.4489 102.332 19.5436 102.886 19.733C103.44 19.9223 103.945 20.2301 104.399 20.6562C104.854 21.0777 105.216 21.6364 105.486 22.3324C105.756 23.0284 105.891 23.8854 105.891 24.9034V25.6136H97.4815V24.1648H104.186C104.186 23.5492 104.063 23 103.817 22.517C103.575 22.0341 103.23 21.6529 102.78 21.3736C102.335 21.0942 101.809 20.9545 101.203 20.9545C100.536 20.9545 99.9579 21.1203 99.4702 21.4517C98.9872 21.7784 98.6155 22.2045 98.3551 22.7301C98.0947 23.2557 97.9645 23.8191 97.9645 24.4205V25.3864C97.9645 26.2102 98.1065 26.9086 98.3906 27.4815C98.6795 28.0497 99.0795 28.483 99.5909 28.7812C100.102 29.0748 100.696 29.2216 101.374 29.2216C101.814 29.2216 102.212 29.16 102.567 29.0369C102.927 28.9091 103.237 28.7197 103.497 28.4688C103.758 28.2131 103.959 27.8958 104.101 27.517L105.72 27.9716C105.55 28.5208 105.263 29.0038 104.861 29.4205C104.458 29.8324 103.961 30.1544 103.369 30.3864C102.777 30.6136 102.112 30.7273 101.374 30.7273Z" fill="white"/>
<path d="M136.846 20.2917C134.374 24.0181 127.927 31.3928 124.901 31.4189C121.875 31.445 114.897 22.6342 112.72 19.8482C112.72 19.8482 114.136 17.5032 115.506 17.6715C118.484 18.0371 122.45 26.7678 125.51 26.4562C127.551 26.2484 131.387 19.6214 133.677 17.3838C134.878 16.2098 137.775 18.8921 136.846 20.2917Z" fill="#B17E36" stroke="black"/>
</svg>
