<svg width="327" height="154" viewBox="0 0 327 154" fill="none" xmlns="http://www.w3.org/2000/svg">

    <style>
        path {
            animation: dashFromLeft 1s ease-out forwards;
            animation-delay: 0.3s;
             transform: translateX(-500px);
        }

        @keyframes dashFromLeft {
            from {
                transform: translateX(-500px);
            }

            to {
                transform: translateX(0);
            }
        }
    </style>

    <path
        d="M0.5 3.57301V150.9C0.5 150.9 240.045 156.75 291.096 150.9C342.147 145.049 334.293 10.4873 291.096 3.57301C247.899 -3.34126 0.5 3.57301 0.5 3.57301Z"
        fill="#685DCF" stroke="black" />
    <path
        d="M77.5938 33.8437L76.7656 34.0781C76.7135 33.9401 76.6367 33.806 76.5352 33.6758C76.4362 33.543 76.3008 33.4336 76.1289 33.3477C75.957 33.2617 75.737 33.2187 75.4688 33.2187C75.1016 33.2187 74.7956 33.3034 74.5508 33.4727C74.3086 33.6393 74.1875 33.8516 74.1875 34.1094C74.1875 34.3385 74.2708 34.5195 74.4375 34.6523C74.6042 34.7852 74.8646 34.8958 75.2188 34.9844L76.1094 35.2031C76.6458 35.3333 77.0456 35.5326 77.3086 35.8008C77.5716 36.0664 77.7031 36.4089 77.7031 36.8281C77.7031 37.1719 77.6042 37.4792 77.4063 37.75C77.2109 38.0208 76.9375 38.2344 76.5859 38.3906C76.2344 38.5469 75.8255 38.625 75.3594 38.625C74.7474 38.625 74.2409 38.4922 73.8398 38.2266C73.4388 37.9609 73.1849 37.5729 73.0781 37.0625L73.9531 36.8437C74.0365 37.1667 74.194 37.4089 74.4258 37.5703C74.6602 37.7318 74.9661 37.8125 75.3438 37.8125C75.7734 37.8125 76.1146 37.7214 76.3672 37.5391C76.6224 37.3542 76.75 37.1328 76.75 36.875C76.75 36.6667 76.6771 36.4922 76.5313 36.3516C76.3854 36.2083 76.1615 36.1016 75.8594 36.0312L74.8594 35.7969C74.3099 35.6667 73.9062 35.4648 73.6484 35.1914C73.3932 34.9154 73.2656 34.5703 73.2656 34.1562C73.2656 33.8177 73.3607 33.5182 73.5508 33.2578C73.7435 32.9974 74.0052 32.793 74.3359 32.6445C74.6693 32.4961 75.0469 32.4219 75.4688 32.4219C76.0625 32.4219 76.5286 32.5521 76.8672 32.8125C77.2083 33.0729 77.4505 33.4167 77.5938 33.8437ZM81.5283 38.625C80.9867 38.625 80.5114 38.4961 80.1025 38.2383C79.6963 37.9805 79.3786 37.6198 79.1494 37.1562C78.9229 36.6927 78.8096 36.151 78.8096 35.5312C78.8096 34.9062 78.9229 34.3607 79.1494 33.8945C79.3786 33.4284 79.6963 33.0664 80.1025 32.8086C80.5114 32.5508 80.9867 32.4219 81.5283 32.4219C82.07 32.4219 82.5439 32.5508 82.9502 32.8086C83.359 33.0664 83.6768 33.4284 83.9033 33.8945C84.1325 34.3607 84.2471 34.9062 84.2471 35.5312C84.2471 36.151 84.1325 36.6927 83.9033 37.1562C83.6768 37.6198 83.359 37.9805 82.9502 38.2383C82.5439 38.4961 82.07 38.625 81.5283 38.625ZM81.5283 37.7969C81.9398 37.7969 82.2783 37.6914 82.5439 37.4805C82.8096 37.2695 83.0062 36.9922 83.1338 36.6484C83.2614 36.3047 83.3252 35.9323 83.3252 35.5312C83.3252 35.1302 83.2614 34.7565 83.1338 34.4102C83.0062 34.0638 82.8096 33.7839 82.5439 33.5703C82.2783 33.3568 81.9398 33.25 81.5283 33.25C81.1169 33.25 80.7783 33.3568 80.5127 33.5703C80.2471 33.7839 80.0505 34.0638 79.9229 34.4102C79.7952 34.7565 79.7314 35.1302 79.7314 35.5312C79.7314 35.9323 79.7952 36.3047 79.9229 36.6484C80.0505 36.9922 80.2471 37.2695 80.5127 37.4805C80.7783 37.6914 81.1169 37.7969 81.5283 37.7969ZM85.6543 38.5V32.5H86.5449V33.4375H86.623C86.748 33.1172 86.9499 32.8685 87.2285 32.6914C87.5072 32.5117 87.8418 32.4219 88.2324 32.4219C88.6283 32.4219 88.9577 32.5117 89.2207 32.6914C89.4863 32.8685 89.6934 33.1172 89.8418 33.4375H89.9043C90.0579 33.1276 90.2884 32.8815 90.5957 32.6992C90.903 32.5143 91.2715 32.4219 91.7012 32.4219C92.2376 32.4219 92.6764 32.5898 93.0176 32.9258C93.3587 33.2591 93.5293 33.7786 93.5293 34.4844V38.5H92.6074V34.4844C92.6074 34.0417 92.4863 33.7253 92.2441 33.5352C92.002 33.3451 91.7168 33.25 91.3887 33.25C90.9668 33.25 90.64 33.3776 90.4082 33.6328C90.1764 33.8854 90.0605 34.2057 90.0605 34.5937V38.5H89.123V34.3906C89.123 34.0495 89.0124 33.7747 88.791 33.5664C88.5697 33.3555 88.2845 33.25 87.9355 33.25C87.696 33.25 87.472 33.3138 87.2637 33.4414C87.0579 33.569 86.8913 33.7461 86.7637 33.9727C86.6387 34.1966 86.5762 34.4557 86.5762 34.75V38.5H85.6543ZM97.7305 38.625C97.1523 38.625 96.6536 38.4974 96.2344 38.2422C95.8177 37.9844 95.4961 37.625 95.2695 37.1641C95.0456 36.7005 94.9336 36.1615 94.9336 35.5469C94.9336 34.9323 95.0456 34.3906 95.2695 33.9219C95.4961 33.4505 95.8112 33.0833 96.2148 32.8203C96.6211 32.5547 97.0951 32.4219 97.6367 32.4219C97.9492 32.4219 98.2578 32.474 98.5625 32.5781C98.8672 32.6823 99.1445 32.8516 99.3945 33.0859C99.6445 33.3177 99.8438 33.625 99.9922 34.0078C100.141 34.3906 100.215 34.862 100.215 35.4219V35.8125H95.5898V35.0156H99.2773C99.2773 34.6771 99.2096 34.375 99.0742 34.1094C98.9414 33.8437 98.7513 33.6341 98.5039 33.4805C98.2591 33.3268 97.9701 33.25 97.6367 33.25C97.2695 33.25 96.9518 33.3411 96.6836 33.5234C96.418 33.7031 96.2135 33.9375 96.0703 34.2266C95.9271 34.5156 95.8555 34.8255 95.8555 35.1562V35.6875C95.8555 36.1406 95.9336 36.5247 96.0898 36.8398C96.2487 37.1523 96.4688 37.3906 96.75 37.5547C97.0313 37.7161 97.3581 37.7969 97.7305 37.7969C97.9727 37.7969 98.1914 37.763 98.3867 37.6953C98.5846 37.625 98.7552 37.5208 98.8984 37.3828C99.0417 37.2422 99.1523 37.0677 99.2305 36.8594L100.121 37.1094C100.027 37.4115 99.8698 37.6771 99.6484 37.9062C99.4271 38.1328 99.1536 38.3099 98.8281 38.4375C98.5026 38.5625 98.1367 38.625 97.7305 38.625ZM107.32 32.5V33.2812H104.211V32.5H107.32ZM105.117 31.0625H106.039V36.7812C106.039 37.0417 106.077 37.237 106.152 37.3672C106.23 37.4948 106.329 37.5807 106.449 37.625C106.572 37.6667 106.701 37.6875 106.836 37.6875C106.938 37.6875 107.021 37.6823 107.086 37.6719C107.151 37.6589 107.203 37.6484 107.242 37.6406L107.43 38.4687C107.367 38.4922 107.28 38.5156 107.168 38.5391C107.056 38.5651 106.914 38.5781 106.742 38.5781C106.482 38.5781 106.227 38.5221 105.977 38.4102C105.729 38.2982 105.523 38.1276 105.359 37.8984C105.198 37.6693 105.117 37.3802 105.117 37.0312V31.0625ZM111.158 38.625C110.58 38.625 110.081 38.4974 109.662 38.2422C109.245 37.9844 108.924 37.625 108.697 37.1641C108.473 36.7005 108.361 36.1615 108.361 35.5469C108.361 34.9323 108.473 34.3906 108.697 33.9219C108.924 33.4505 109.239 33.0833 109.643 32.8203C110.049 32.5547 110.523 32.4219 111.064 32.4219C111.377 32.4219 111.686 32.474 111.99 32.5781C112.295 32.6823 112.572 32.8516 112.822 33.0859C113.072 33.3177 113.271 33.625 113.42 34.0078C113.568 34.3906 113.643 34.862 113.643 35.4219V35.8125H109.018V35.0156H112.705C112.705 34.6771 112.637 34.375 112.502 34.1094C112.369 33.8437 112.179 33.6341 111.932 33.4805C111.687 33.3268 111.398 33.25 111.064 33.25C110.697 33.25 110.38 33.3411 110.111 33.5234C109.846 33.7031 109.641 33.9375 109.498 34.2266C109.355 34.5156 109.283 34.8255 109.283 35.1562V35.6875C109.283 36.1406 109.361 36.5247 109.518 36.8398C109.676 37.1523 109.896 37.3906 110.178 37.5547C110.459 37.7161 110.786 37.7969 111.158 37.7969C111.4 37.7969 111.619 37.763 111.814 37.6953C112.012 37.625 112.183 37.5208 112.326 37.3828C112.469 37.2422 112.58 37.0677 112.658 36.8594L113.549 37.1094C113.455 37.4115 113.298 37.6771 113.076 37.9062C112.855 38.1328 112.581 38.3099 112.256 38.4375C111.93 38.5625 111.564 38.625 111.158 38.625ZM115.571 32.5L117.009 34.9531L118.446 32.5H119.509L117.571 35.5L119.509 38.5H118.446L117.009 36.1719L115.571 38.5H114.509L116.415 35.5L114.509 32.5H115.571ZM123.434 32.5V33.2812H120.324V32.5H123.434ZM121.23 31.0625H122.152V36.7812C122.152 37.0417 122.19 37.237 122.266 37.3672C122.344 37.4948 122.443 37.5807 122.563 37.625C122.685 37.6667 122.814 37.6875 122.949 37.6875C123.051 37.6875 123.134 37.6823 123.199 37.6719C123.264 37.6589 123.316 37.6484 123.355 37.6406L123.543 38.4687C123.48 38.4922 123.393 38.5156 123.281 38.5391C123.169 38.5651 123.027 38.5781 122.855 38.5781C122.595 38.5781 122.34 38.5221 122.09 38.4102C121.842 38.2982 121.637 38.1276 121.473 37.8984C121.311 37.6693 121.23 37.3802 121.23 37.0312V31.0625ZM128.836 34.8906V38.5H127.914V30.5H128.836V33.4375H128.914C129.055 33.1276 129.266 32.8815 129.547 32.6992C129.831 32.5143 130.208 32.4219 130.68 32.4219C131.089 32.4219 131.447 32.5039 131.754 32.668C132.061 32.8294 132.299 33.0781 132.469 33.4141C132.641 33.7474 132.727 34.1719 132.727 34.6875V38.5H131.805V34.75C131.805 34.2734 131.681 33.9049 131.434 33.6445C131.189 33.3815 130.849 33.25 130.414 33.25C130.112 33.25 129.841 33.3138 129.602 33.4414C129.365 33.569 129.177 33.7552 129.039 34C128.904 34.2448 128.836 34.5417 128.836 34.8906ZM136.929 38.625C136.351 38.625 135.852 38.4974 135.433 38.2422C135.016 37.9844 134.694 37.625 134.468 37.1641C134.244 36.7005 134.132 36.1615 134.132 35.5469C134.132 34.9323 134.244 34.3906 134.468 33.9219C134.694 33.4505 135.009 33.0833 135.413 32.8203C135.819 32.5547 136.293 32.4219 136.835 32.4219C137.147 32.4219 137.456 32.474 137.761 32.5781C138.065 32.6823 138.343 32.8516 138.593 33.0859C138.843 33.3177 139.042 33.625 139.19 34.0078C139.339 34.3906 139.413 34.862 139.413 35.4219V35.8125H134.788V35.0156H138.476C138.476 34.6771 138.408 34.375 138.272 34.1094C138.14 33.8437 137.95 33.6341 137.702 33.4805C137.457 33.3268 137.168 33.25 136.835 33.25C136.468 33.25 136.15 33.3411 135.882 33.5234C135.616 33.7031 135.412 33.9375 135.269 34.2266C135.125 34.5156 135.054 34.8255 135.054 35.1562V35.6875C135.054 36.1406 135.132 36.5247 135.288 36.8398C135.447 37.1523 135.667 37.3906 135.948 37.5547C136.229 37.7161 136.556 37.7969 136.929 37.7969C137.171 37.7969 137.39 37.763 137.585 37.6953C137.783 37.625 137.953 37.5208 138.097 37.3828C138.24 37.2422 138.351 37.0677 138.429 36.8594L139.319 37.1094C139.226 37.4115 139.068 37.6771 138.847 37.9062C138.625 38.1328 138.352 38.3099 138.026 38.4375C137.701 38.5625 137.335 38.625 136.929 38.625ZM140.815 38.5V32.5H141.706V33.4062H141.769C141.878 33.1094 142.076 32.8685 142.362 32.6836C142.649 32.4987 142.972 32.4062 143.331 32.4062C143.399 32.4062 143.483 32.4076 143.585 32.4102C143.687 32.4128 143.763 32.4167 143.815 32.4219V33.3594C143.784 33.3516 143.713 33.3398 143.601 33.3242C143.491 33.306 143.375 33.2969 143.253 33.2969C142.961 33.2969 142.701 33.3581 142.472 33.4805C142.245 33.6003 142.065 33.7669 141.933 33.9805C141.802 34.1914 141.737 34.4323 141.737 34.7031V38.5H140.815ZM147.241 38.625C146.663 38.625 146.164 38.4974 145.745 38.2422C145.328 37.9844 145.007 37.625 144.78 37.1641C144.556 36.7005 144.444 36.1615 144.444 35.5469C144.444 34.9323 144.556 34.3906 144.78 33.9219C145.007 33.4505 145.322 33.0833 145.726 32.8203C146.132 32.5547 146.606 32.4219 147.147 32.4219C147.46 32.4219 147.769 32.474 148.073 32.5781C148.378 32.6823 148.655 32.8516 148.905 33.0859C149.155 33.3177 149.354 33.625 149.503 34.0078C149.651 34.3906 149.726 34.862 149.726 35.4219V35.8125H145.101V35.0156H148.788C148.788 34.6771 148.72 34.375 148.585 34.1094C148.452 33.8437 148.262 33.6341 148.015 33.4805C147.77 33.3268 147.481 33.25 147.147 33.25C146.78 33.25 146.463 33.3411 146.194 33.5234C145.929 33.7031 145.724 33.9375 145.581 34.2266C145.438 34.5156 145.366 34.8255 145.366 35.1562V35.6875C145.366 36.1406 145.444 36.5247 145.601 36.8398C145.759 37.1523 145.979 37.3906 146.261 37.5547C146.542 37.7161 146.869 37.7969 147.241 37.7969C147.483 37.7969 147.702 37.763 147.897 37.6953C148.095 37.625 148.266 37.5208 148.409 37.3828C148.552 37.2422 148.663 37.0677 148.741 36.8594L149.632 37.1094C149.538 37.4115 149.381 37.6771 149.159 37.9062C148.938 38.1328 148.664 38.3099 148.339 38.4375C148.013 38.5625 147.647 38.625 147.241 38.625ZM73.4688 51.5V43.5H74.3906V46.4531H74.4688C74.5365 46.349 74.6302 46.2161 74.75 46.0547C74.8724 45.8906 75.0469 45.7448 75.2734 45.6172C75.5026 45.487 75.8125 45.4219 76.2031 45.4219C76.7083 45.4219 77.1536 45.5482 77.5391 45.8008C77.9245 46.0534 78.2253 46.4115 78.4414 46.875C78.6576 47.3385 78.7656 47.8854 78.7656 48.5156C78.7656 49.151 78.6576 49.7018 78.4414 50.168C78.2253 50.6315 77.9258 50.9909 77.543 51.2461C77.1602 51.4987 76.7188 51.625 76.2188 51.625C75.8333 51.625 75.5247 51.5612 75.293 51.4336C75.0612 51.3034 74.8828 51.1562 74.7578 50.9922C74.6328 50.8255 74.5365 50.6875 74.4688 50.5781H74.3594V51.5H73.4688ZM74.375 48.5C74.375 48.9531 74.4414 49.3529 74.5742 49.6992C74.707 50.043 74.901 50.3125 75.1563 50.5078C75.4115 50.7005 75.724 50.7969 76.0938 50.7969C76.4792 50.7969 76.8008 50.6953 77.0586 50.4922C77.319 50.2865 77.5143 50.0104 77.6445 49.6641C77.7773 49.3151 77.8438 48.9271 77.8438 48.5C77.8438 48.0781 77.7786 47.6979 77.6484 47.3594C77.5208 47.0182 77.3268 46.7487 77.0664 46.5508C76.8086 46.3503 76.4844 46.25 76.0938 46.25C75.7188 46.25 75.4036 46.3451 75.1484 46.5352C74.8932 46.7227 74.7005 46.9857 74.5703 47.3242C74.4401 47.6602 74.375 48.0521 74.375 48.5ZM81.0977 43.5V51.5H80.1758V43.5H81.0977ZM84.5518 51.6406C84.1715 51.6406 83.8265 51.569 83.5166 51.4258C83.2067 51.2799 82.9606 51.0703 82.7783 50.7969C82.596 50.5208 82.5049 50.1875 82.5049 49.7969C82.5049 49.4531 82.5726 49.1745 82.708 48.9609C82.8434 48.7448 83.0244 48.5755 83.251 48.4531C83.4775 48.3307 83.7275 48.2396 84.001 48.1797C84.277 48.1172 84.5544 48.0677 84.833 48.0313C85.1976 47.9844 85.4932 47.9492 85.7197 47.9258C85.9489 47.8997 86.1156 47.8568 86.2197 47.7969C86.3265 47.737 86.3799 47.6328 86.3799 47.4844V47.4531C86.3799 47.0677 86.2744 46.7682 86.0635 46.5547C85.8551 46.3411 85.5387 46.2344 85.1143 46.2344C84.6742 46.2344 84.3291 46.3307 84.0791 46.5234C83.8291 46.7161 83.6533 46.9219 83.5518 47.1406L82.6768 46.8281C82.833 46.4635 83.0413 46.1797 83.3018 45.9766C83.5648 45.7708 83.8512 45.6276 84.1611 45.5469C84.4736 45.4635 84.7809 45.4219 85.083 45.4219C85.2757 45.4219 85.4971 45.4453 85.7471 45.4922C85.9997 45.5365 86.2432 45.6289 86.4775 45.7695C86.7145 45.9102 86.9111 46.1224 87.0674 46.4062C87.2236 46.6901 87.3018 47.0703 87.3018 47.5469V51.5H86.3799V50.6875H86.333C86.2705 50.8177 86.1663 50.957 86.0205 51.1055C85.8747 51.2539 85.6807 51.3802 85.4385 51.4844C85.1963 51.5885 84.9007 51.6406 84.5518 51.6406ZM84.6924 50.8125C85.057 50.8125 85.3643 50.7409 85.6143 50.5977C85.8669 50.4544 86.057 50.2695 86.1846 50.043C86.3148 49.8164 86.3799 49.5781 86.3799 49.3281V48.4844C86.3408 48.5312 86.2549 48.5742 86.1221 48.6133C85.9919 48.6497 85.8408 48.6823 85.6689 48.7109C85.4997 48.737 85.3343 48.7604 85.1729 48.7812C85.014 48.7995 84.8851 48.8151 84.7861 48.8281C84.5465 48.8594 84.3226 48.9102 84.1143 48.9805C83.9085 49.0482 83.7419 49.151 83.6143 49.2891C83.4893 49.4245 83.4268 49.6094 83.4268 49.8437C83.4268 50.1641 83.5452 50.4062 83.7822 50.5703C84.0218 50.7318 84.3252 50.8125 84.6924 50.8125ZM92.2031 51.5V43.5H93.125V46.4531H93.2031C93.2708 46.349 93.3646 46.2161 93.4844 46.0547C93.6068 45.8906 93.7813 45.7448 94.0078 45.6172C94.237 45.487 94.5469 45.4219 94.9375 45.4219C95.4427 45.4219 95.888 45.5482 96.2734 45.8008C96.6589 46.0534 96.9596 46.4115 97.1758 46.875C97.3919 47.3385 97.5 47.8854 97.5 48.5156C97.5 49.151 97.3919 49.7018 97.1758 50.168C96.9596 50.6315 96.6602 50.9909 96.2773 51.2461C95.8945 51.4987 95.4531 51.625 94.9531 51.625C94.5677 51.625 94.2591 51.5612 94.0273 51.4336C93.7956 51.3034 93.6172 51.1562 93.4922 50.9922C93.3672 50.8255 93.2708 50.6875 93.2031 50.5781H93.0938V51.5H92.2031ZM93.1094 48.5C93.1094 48.9531 93.1758 49.3529 93.3086 49.6992C93.4414 50.043 93.6354 50.3125 93.8906 50.5078C94.1458 50.7005 94.4583 50.7969 94.8281 50.7969C95.2135 50.7969 95.5352 50.6953 95.793 50.4922C96.0534 50.2865 96.2487 50.0104 96.3789 49.6641C96.5117 49.3151 96.5781 48.9271 96.5781 48.5C96.5781 48.0781 96.513 47.6979 96.3828 47.3594C96.2552 47.0182 96.0612 46.7487 95.8008 46.5508C95.543 46.3503 95.2188 46.25 94.8281 46.25C94.4531 46.25 94.138 46.3451 93.8828 46.5352C93.6276 46.7227 93.4349 46.9857 93.3047 47.3242C93.1745 47.6602 93.1094 48.0521 93.1094 48.5ZM99.832 43.5V51.5H98.9102V43.5H99.832ZM103.286 51.6406C102.906 51.6406 102.561 51.569 102.251 51.4258C101.941 51.2799 101.695 51.0703 101.513 50.7969C101.33 50.5208 101.239 50.1875 101.239 49.7969C101.239 49.4531 101.307 49.1745 101.442 48.9609C101.578 48.7448 101.759 48.5755 101.985 48.4531C102.212 48.3307 102.462 48.2396 102.735 48.1797C103.011 48.1172 103.289 48.0677 103.567 48.0313C103.932 47.9844 104.228 47.9492 104.454 47.9258C104.683 47.8997 104.85 47.8568 104.954 47.7969C105.061 47.737 105.114 47.6328 105.114 47.4844V47.4531C105.114 47.0677 105.009 46.7682 104.798 46.5547C104.59 46.3411 104.273 46.2344 103.849 46.2344C103.409 46.2344 103.063 46.3307 102.813 46.5234C102.563 46.7161 102.388 46.9219 102.286 47.1406L101.411 46.8281C101.567 46.4635 101.776 46.1797 102.036 45.9766C102.299 45.7708 102.586 45.6276 102.896 45.5469C103.208 45.4635 103.515 45.4219 103.817 45.4219C104.01 45.4219 104.231 45.4453 104.481 45.4922C104.734 45.5365 104.978 45.6289 105.212 45.7695C105.449 45.9102 105.646 46.1224 105.802 46.4062C105.958 46.6901 106.036 47.0703 106.036 47.5469V51.5H105.114V50.6875H105.067C105.005 50.8177 104.901 50.957 104.755 51.1055C104.609 51.2539 104.415 51.3802 104.173 51.4844C103.931 51.5885 103.635 51.6406 103.286 51.6406ZM103.427 50.8125C103.791 50.8125 104.099 50.7409 104.349 50.5977C104.601 50.4544 104.791 50.2695 104.919 50.043C105.049 49.8164 105.114 49.5781 105.114 49.3281V48.4844C105.075 48.5312 104.989 48.5742 104.856 48.6133C104.726 48.6497 104.575 48.6823 104.403 48.7109C104.234 48.737 104.069 48.7604 103.907 48.7812C103.748 48.7995 103.619 48.8151 103.521 48.8281C103.281 48.8594 103.057 48.9102 102.849 48.9805C102.643 49.0482 102.476 49.151 102.349 49.2891C102.224 49.4245 102.161 49.6094 102.161 49.8437C102.161 50.1641 102.28 50.4062 102.517 50.5703C102.756 50.7318 103.06 50.8125 103.427 50.8125ZM110.938 51.5V43.5H111.859V46.4531H111.938C112.005 46.349 112.099 46.2161 112.219 46.0547C112.341 45.8906 112.516 45.7448 112.742 45.6172C112.971 45.487 113.281 45.4219 113.672 45.4219C114.177 45.4219 114.622 45.5482 115.008 45.8008C115.393 46.0534 115.694 46.4115 115.91 46.875C116.126 47.3385 116.234 47.8854 116.234 48.5156C116.234 49.151 116.126 49.7018 115.91 50.168C115.694 50.6315 115.395 50.9909 115.012 51.2461C114.629 51.4987 114.188 51.625 113.688 51.625C113.302 51.625 112.993 51.5612 112.762 51.4336C112.53 51.3034 112.352 51.1562 112.227 50.9922C112.102 50.8255 112.005 50.6875 111.938 50.5781H111.828V51.5H110.938ZM111.844 48.5C111.844 48.9531 111.91 49.3529 112.043 49.6992C112.176 50.043 112.37 50.3125 112.625 50.5078C112.88 50.7005 113.193 50.7969 113.563 50.7969C113.948 50.7969 114.27 50.6953 114.527 50.4922C114.788 50.2865 114.983 50.0104 115.113 49.6641C115.246 49.3151 115.313 48.9271 115.313 48.5C115.313 48.0781 115.247 47.6979 115.117 47.3594C114.99 47.0182 114.796 46.7487 114.535 46.5508C114.277 46.3503 113.953 46.25 113.563 46.25C113.188 46.25 112.872 46.3451 112.617 46.5352C112.362 46.7227 112.169 46.9857 112.039 47.3242C111.909 47.6602 111.844 48.0521 111.844 48.5ZM118.566 43.5V51.5H117.645V43.5H118.566ZM122.021 51.6406C121.64 51.6406 121.295 51.569 120.985 51.4258C120.675 51.2799 120.429 51.0703 120.247 50.7969C120.065 50.5208 119.974 50.1875 119.974 49.7969C119.974 49.4531 120.041 49.1745 120.177 48.9609C120.312 48.7448 120.493 48.5755 120.72 48.4531C120.946 48.3307 121.196 48.2396 121.47 48.1797C121.746 48.1172 122.023 48.0677 122.302 48.0313C122.666 47.9844 122.962 47.9492 123.188 47.9258C123.418 47.8997 123.584 47.8568 123.688 47.7969C123.795 47.737 123.849 47.6328 123.849 47.4844V47.4531C123.849 47.0677 123.743 46.7682 123.532 46.5547C123.324 46.3411 123.007 46.2344 122.583 46.2344C122.143 46.2344 121.798 46.3307 121.548 46.5234C121.298 46.7161 121.122 46.9219 121.021 47.1406L120.146 46.8281C120.302 46.4635 120.51 46.1797 120.771 45.9766C121.034 45.7708 121.32 45.6276 121.63 45.5469C121.942 45.4635 122.25 45.4219 122.552 45.4219C122.744 45.4219 122.966 45.4453 123.216 45.4922C123.468 45.5365 123.712 45.6289 123.946 45.7695C124.183 45.9102 124.38 46.1224 124.536 46.4062C124.692 46.6901 124.771 47.0703 124.771 47.5469V51.5H123.849V50.6875H123.802C123.739 50.8177 123.635 50.957 123.489 51.1055C123.343 51.2539 123.149 51.3802 122.907 51.4844C122.665 51.5885 122.369 51.6406 122.021 51.6406ZM122.161 50.8125C122.526 50.8125 122.833 50.7409 123.083 50.5977C123.336 50.4544 123.526 50.2695 123.653 50.043C123.784 49.8164 123.849 49.5781 123.849 49.3281V48.4844C123.81 48.5312 123.724 48.5742 123.591 48.6133C123.461 48.6497 123.31 48.6823 123.138 48.7109C122.968 48.737 122.803 48.7604 122.642 48.7812C122.483 48.7995 122.354 48.8151 122.255 48.8281C122.015 48.8594 121.791 48.9102 121.583 48.9805C121.377 49.0482 121.211 49.151 121.083 49.2891C120.958 49.4245 120.896 49.6094 120.896 49.8437C120.896 50.1641 121.014 50.4062 121.251 50.5703C121.491 50.7318 121.794 50.8125 122.161 50.8125Z"
        fill="white" />
</svg>