<svg width="209" height="56" viewBox="0 0 209 56" fill="none" xmlns="http://www.w3.org/2000/svg">
<path d="M6.41649 44.5C12.7991 47.5 200.299 47.5 203.815 44.5C207.331 41.5 211.654 12.1687 203.815 5.27844C195.976 -1.61183 15.6807 -0.551784 6.41649 5.27844C-2.84774 11.1087 0.0339186 41.5 6.41649 44.5Z" fill="#EA6200" stroke="black"/>
<path d="M53.4191 21.18H48.9591V32.5H45.0791V21.18H40.5991V17.3H53.4191V21.18ZM64.077 32.5H54.717V17.3H64.077V21.18H58.597V22.96H64.077V26.84H58.597V28.62H64.077V32.5ZM76.2317 21.98C75.4717 21.3 74.5651 20.96 73.5117 20.96C72.7917 20.96 72.1051 21.1467 71.4517 21.52C70.8117 21.88 70.2984 22.3667 69.9117 22.98C69.5251 23.58 69.3317 24.22 69.3317 24.9C69.3317 25.58 69.5251 26.2267 69.9117 26.84C70.2984 27.44 70.8117 27.9267 71.4517 28.3C72.1051 28.66 72.7917 28.84 73.5117 28.84C74.5651 28.84 75.4717 28.5 76.2317 27.82L77.7917 31.46C76.4851 32.2867 75.0584 32.7 73.5117 32.7C72.0984 32.7 70.7717 32.34 69.5317 31.62C68.3051 30.9 67.3184 29.9467 66.5717 28.76C65.8384 27.56 65.4717 26.2733 65.4717 24.9C65.4717 23.5267 65.8384 22.2467 66.5717 21.06C67.3184 19.86 68.3051 18.9 69.5317 18.18C70.7717 17.46 72.0984 17.1 73.5117 17.1C75.0984 17.1 76.5451 17.5267 77.8517 18.38L76.2317 21.98ZM92.0008 32.5H88.1208V26.84H83.4408V32.5H79.5608V17.3H83.4408V22.96H88.1208V17.3H92.0008V32.5ZM112.727 28.3C112.46 31.26 110.58 32.7867 107.087 32.88C104.793 32.8133 102.807 32.18 101.127 30.98L102.487 27.82C104.34 28.9533 105.913 29.5067 107.207 29.48C108.14 29.3867 108.607 28.9733 108.607 28.24C108.607 27.5333 107.76 27.0133 106.067 26.68C102.48 25.9733 100.753 24.2133 100.887 21.4C101.22 18.4267 103.153 16.9067 106.687 16.84C108.647 16.84 110.413 17.38 111.987 18.46L110.687 21.64C109.473 20.84 108.227 20.4067 106.947 20.34C106.427 20.34 106 20.4467 105.667 20.66C105.347 20.8733 105.187 21.1267 105.187 21.42C105.187 21.7533 105.4 22.0733 105.827 22.38C106.253 22.6867 106.9 22.9267 107.767 23.1C111.233 23.78 112.887 25.5133 112.727 28.3ZM126.778 21.18H122.318V32.5H118.438V21.18H113.958V17.3H126.778V21.18ZM142.036 32.5H137.876L137.016 30.14H132.376L131.536 32.5H127.376L133.036 17.3H136.376L142.036 32.5ZM135.916 27.12L134.696 23.76L133.496 27.12H135.916ZM153.79 21.98C153.03 21.3 152.124 20.96 151.07 20.96C150.35 20.96 149.664 21.1467 149.01 21.52C148.37 21.88 147.857 22.3667 147.47 22.98C147.084 23.58 146.89 24.22 146.89 24.9C146.89 25.58 147.084 26.2267 147.47 26.84C147.857 27.44 148.37 27.9267 149.01 28.3C149.664 28.66 150.35 28.84 151.07 28.84C152.124 28.84 153.03 28.5 153.79 27.82L155.35 31.46C154.044 32.2867 152.617 32.7 151.07 32.7C149.657 32.7 148.33 32.34 147.09 31.62C145.864 30.9 144.877 29.9467 144.13 28.76C143.397 27.56 143.03 26.2733 143.03 24.9C143.03 23.5267 143.397 22.2467 144.13 21.06C144.877 19.86 145.864 18.9 147.09 18.18C148.33 17.46 149.657 17.1 151.07 17.1C152.657 17.1 154.104 17.5267 155.41 18.38L153.79 21.98ZM170.579 17.3L164.919 25.04L170.439 32.5H165.619L160.999 25.84V32.5H157.119V17.3H160.999V23.68L166.019 17.3H170.579Z" fill="white"/>
<path d="M178.043 14.8802C181.095 16.9055 187.136 22.1861 187.157 24.6645C187.179 27.1429 179.962 32.8588 177.68 34.6417C177.68 34.6417 175.759 33.4822 175.897 32.3597C176.196 29.9207 183.348 26.6725 183.092 24.1654C182.922 22.4939 177.494 19.3517 175.661 17.4761C174.7 16.4921 176.897 14.1195 178.043 14.8802Z" fill="#696969" stroke="black"/>
<path d="M24.1271 35.35C21.1473 33.2194 15.2947 27.7312 15.3598 25.2535C15.4249 22.7759 22.837 17.3153 25.1798 15.6131C25.1798 15.6131 27.059 16.839 26.8821 17.956C26.4976 20.3831 19.2373 23.3797 19.4049 25.8942C19.5167 27.5706 24.8319 30.9003 26.5982 32.8387C27.5248 33.8557 25.2463 36.1502 24.1271 35.35Z" fill="#696969" stroke="black"/>
<path d="M35.8223 13.0357C36.9363 12.358 38.1842 13.5428 38.4373 14.7339C38.4373 14.7339 32.1045 35.4718 31.602 35.6647C31.0994 35.8576 30.137 35.9967 28.7032 35.6241C27.2695 35.2516 34.7083 13.7134 35.8223 13.0357Z" fill="#696969" stroke="black"/>
</svg>
