<svg width="88" height="76" viewBox="0 0 88 76" fill="none" xmlns="http://www.w3.org/2000/svg">
<path d="M9.184 67.5761H6.062V75.5001H3.346V67.5761H0.21V64.8601H9.184V67.5761ZM20.2426 64.8601L16.2806 70.4461V75.5001H13.5226L13.5366 70.4321L9.60258 64.8601H12.9766L14.9226 67.7021L16.8546 64.8601H20.2426ZM28.7691 68.4581C28.7691 69.1021 28.6198 69.6901 28.3211 70.2221C28.0318 70.7541 27.6025 71.1787 27.0331 71.4961C26.4731 71.8041 25.8151 71.9581 25.0591 71.9581H23.8691V75.5001H21.1531V64.8601H24.9051C25.6798 64.8601 26.3611 65.0234 26.9491 65.3501C27.5371 65.6674 27.9851 66.1014 28.2931 66.6521C28.6105 67.2027 28.7691 67.8047 28.7691 68.4581ZM26.1791 68.3881C26.1698 68.1361 26.0485 67.9214 25.8151 67.7441C25.5911 67.5667 25.2878 67.4781 24.9051 67.4781H23.9251L23.9111 69.3121H24.8911C25.2925 69.3121 25.6051 69.2234 25.8291 69.0461C26.0625 68.8687 26.1791 68.6494 26.1791 68.3881ZM36.25 75.5001H29.698V64.8601H36.25V67.5761H32.414V68.8221H36.25V71.5381H32.414V72.7841H36.25V75.5001ZM45.6543 72.5601C45.4677 74.6321 44.1517 75.7007 41.7063 75.7661C40.101 75.7194 38.7103 75.2761 37.5343 74.4361L38.4863 72.2241C39.7837 73.0174 40.885 73.4047 41.7903 73.3861C42.4437 73.3207 42.7703 73.0314 42.7703 72.5181C42.7703 72.0234 42.1777 71.6594 40.9923 71.4261C38.4817 70.9314 37.273 69.6994 37.3663 67.7301C37.5997 65.6487 38.953 64.5847 41.4263 64.5381C42.7983 64.5381 44.035 64.9161 45.1363 65.6721L44.2263 67.8981C43.377 67.3381 42.5043 67.0347 41.6083 66.9881C41.2443 66.9881 40.9457 67.0627 40.7123 67.2121C40.4883 67.3614 40.3763 67.5387 40.3763 67.7441C40.3763 67.9774 40.5257 68.2014 40.8243 68.4161C41.123 68.6307 41.5757 68.7987 42.1823 68.9201C44.609 69.3961 45.7663 70.6094 45.6543 72.5601ZM54.3286 68.1361C53.7966 67.6601 53.162 67.4221 52.4246 67.4221C51.9206 67.4221 51.44 67.5527 50.9826 67.8141C50.5346 68.0661 50.1753 68.4067 49.9046 68.8361C49.634 69.2561 49.4986 69.7041 49.4986 70.1801C49.4986 70.6561 49.634 71.1087 49.9046 71.5381C50.1753 71.9581 50.5346 72.2987 50.9826 72.5601C51.44 72.8121 51.9206 72.9381 52.4246 72.9381C53.162 72.9381 53.7966 72.7001 54.3286 72.2241L55.4206 74.7721C54.506 75.3507 53.5073 75.6401 52.4246 75.6401C51.4353 75.6401 50.5066 75.3881 49.6386 74.8841C48.78 74.3801 48.0893 73.7127 47.5666 72.8821C47.0533 72.0421 46.7966 71.1414 46.7966 70.1801C46.7966 69.2187 47.0533 68.3227 47.5666 67.4921C48.0893 66.6521 48.78 65.9801 49.6386 65.4761C50.5066 64.9721 51.4353 64.7201 52.4246 64.7201C53.5353 64.7201 54.548 65.0187 55.4626 65.6161L54.3286 68.1361ZM65.199 75.5001H62.217L60.159 71.9581H59.375V75.5001H56.659V64.8601H60.411C61.139 64.8601 61.8063 65.0281 62.413 65.3641C63.0197 65.7001 63.4957 66.1481 63.841 66.7081C64.1863 67.2681 64.359 67.8701 64.359 68.5141C64.359 69.6527 63.8503 70.5721 62.833 71.2721L65.199 75.5001ZM61.699 68.4161C61.6897 68.1547 61.5683 67.9354 61.335 67.7581C61.1017 67.5714 60.7983 67.4781 60.425 67.4781H59.431L59.417 69.3121H60.523C60.8963 69.3121 61.1857 69.2281 61.391 69.0601C61.5963 68.8921 61.699 68.6774 61.699 68.4161ZM68.8223 75.5001H66.1063V64.8601H68.8223V75.5001ZM77.8375 68.4581C77.8375 69.1021 77.6882 69.6901 77.3895 70.2221C77.1002 70.7541 76.6708 71.1787 76.1015 71.4961C75.5415 71.8041 74.8835 71.9581 74.1275 71.9581H72.9375V75.5001H70.2215V64.8601H73.9735C74.7482 64.8601 75.4295 65.0234 76.0175 65.3501C76.6055 65.6674 77.0535 66.1014 77.3615 66.6521C77.6788 67.2027 77.8375 67.8047 77.8375 68.4581ZM75.2475 68.3881C75.2382 68.1361 75.1168 67.9214 74.8835 67.7441C74.6595 67.5667 74.3562 67.4781 73.9735 67.4781H72.9935L72.9795 69.3121H73.9595C74.3608 69.3121 74.6735 69.2234 74.8975 69.0461C75.1308 68.8687 75.2475 68.6494 75.2475 68.3881ZM87.2504 67.5761H84.1284V75.5001H81.4124V67.5761H78.2764V64.8601H87.2504V67.5761Z" fill="white"/>
<path d="M46.1062 0.615248C29.8731 -0.879336 14.4992 12.3731 13.1062 28.6152C12.187 39.3346 17.3104 49.9162 25.5 56.107C30.2724 59.7147 36.086 61.8313 42.3518 61.6152C58.1212 61.0715 75.2132 46.3899 74.8518 30.6152C74.5063 15.5384 61.1235 1.99789 46.1062 0.615248Z" fill="#D9D9D9" stroke="black"/>
<path d="M41.992 25.3881H34.856V43.5001H28.648V25.3881H21.48V19.1801H41.992V25.3881ZM62.8528 36.7801C62.4261 41.5161 59.4181 43.9587 53.8288 44.1081C50.1594 44.0014 46.9808 42.9881 44.2928 41.0681L46.4688 36.0121C49.4341 37.8254 51.9514 38.7107 54.0208 38.6681C55.5141 38.5187 56.2608 37.8574 56.2608 36.6841C56.2608 35.5534 54.9061 34.7214 52.1968 34.1881C46.4581 33.0574 43.6954 30.2414 43.9088 25.7401C44.4421 20.9827 47.5354 18.5507 53.1888 18.4441C56.3248 18.4441 59.1514 19.3081 61.6688 21.0361L59.5888 26.1241C57.6474 24.8441 55.6528 24.1507 53.6048 24.0441C52.7728 24.0441 52.0901 24.2147 51.5568 24.5561C51.0448 24.8974 50.7888 25.3027 50.7888 25.7721C50.7888 26.3054 51.1301 26.8174 51.8128 27.3081C52.4954 27.7987 53.5301 28.1827 54.9168 28.4601C60.4634 29.5481 63.1088 32.3214 62.8528 36.7801Z" fill="#3178C6"/>
</svg>
