<svg width="63" height="76" viewBox="0 0 63 76" fill="none" xmlns="http://www.w3.org/2000/svg">
<path d="M13.418 72.5601C13.2314 74.6321 11.9154 75.7007 9.47003 75.7661C7.8647 75.7194 6.47403 75.2761 5.29803 74.4361L6.25003 72.2241C7.54736 73.0174 8.6487 73.4047 9.55403 73.3861C10.2074 73.3207 10.534 73.0314 10.534 72.5181C10.534 72.0234 9.94136 71.6594 8.75603 71.4261C6.24536 70.9314 5.0367 69.6994 5.13003 67.7301C5.36336 65.6487 6.7167 64.5847 9.19003 64.5381C10.562 64.5381 11.7987 64.9161 12.9 65.6721L11.99 67.8981C11.1407 67.3381 10.268 67.0347 9.37203 66.9881C9.00803 66.9881 8.70936 67.0627 8.47603 67.2121C8.25203 67.3614 8.14003 67.5387 8.14003 67.7441C8.14003 67.9774 8.28936 68.2014 8.58803 68.4161C8.8867 68.6307 9.33936 68.7987 9.94603 68.9201C12.3727 69.3961 13.53 70.6094 13.418 72.5601ZM24.5423 64.8601L20.5803 75.5001H18.2423L14.2803 64.8601H17.1923L19.4043 70.9781L21.6303 64.8601H24.5423ZM32.0001 75.5001H25.4481V64.8601H32.0001V67.5761H28.1641V68.8221H32.0001V71.5381H28.1641V72.7841H32.0001V75.5001ZM39.7384 75.5001H33.1864V64.8601H35.9024V72.7841H39.7384V75.5001ZM49.1352 67.5761H46.0132V75.5001H43.2972V67.5761H40.1612V64.8601H49.1352V67.5761ZM56.5958 75.5001H50.0438V64.8601H56.5958V67.5761H52.7598V68.8221H56.5958V71.5381H52.7598V72.7841H56.5958V75.5001Z" fill="white"/>
<path d="M33.6063 0.615248C17.3732 -0.879336 1.99919 12.3731 0.606267 28.6152C-0.313018 39.3346 4.81044 49.9162 13 56.107C17.7724 59.7147 23.586 61.8313 29.8518 61.6152C45.6212 61.0715 62.7132 46.3899 62.3518 30.6152C62.0063 15.5384 48.6235 1.99789 33.6063 0.615248Z" fill="#D9D9D9" stroke="black"/>
<path d="M44.4189 17.8092C41.1143 13.0414 34.5875 11.6281 29.8684 14.659L21.5804 19.9838C20.4608 20.6939 19.5005 21.6316 18.7608 22.737C18.0212 23.8425 17.5184 25.0913 17.2848 26.4038C16.8895 28.6145 17.237 30.895 18.2723 32.8843C17.5628 33.9691 17.079 35.1876 16.8499 36.4663C16.6138 37.8052 16.6453 39.1781 16.9425 40.5046C17.2398 41.831 17.7968 43.0843 18.5808 44.1909C21.8862 48.9592 28.413 50.3718 33.1314 47.3411L41.4193 42.0163C42.539 41.3063 43.4994 40.3686 44.2391 39.2632C44.9788 38.1577 45.4815 36.9088 45.715 35.5963C46.1103 33.3856 45.7631 31.1051 44.7282 29.1157C45.4375 28.0309 45.9212 26.8124 46.15 25.5338C46.3863 24.1949 46.3548 22.822 46.0576 21.4955C45.7604 20.169 45.2032 18.9158 44.4189 17.8092Z" fill="#FF3E00"/>
<path d="M29.0587 44.6394C27.7545 44.9813 26.3775 44.9114 25.1139 44.4393C23.8503 43.9671 22.7609 43.1154 21.9927 41.9992C21.5211 41.3338 21.1861 40.5801 21.0073 39.7824C20.8285 38.9847 20.8096 38.1591 20.9516 37.3539C20.9997 37.0896 21.0658 36.8289 21.1496 36.5737L21.3057 36.094L21.7303 36.4083C22.711 37.1347 23.8074 37.6869 24.9724 38.0412L25.2804 38.1354L25.2521 38.4453C25.2144 38.8862 25.3329 39.3263 25.5864 39.6875C25.8175 40.0238 26.1455 40.2804 26.5259 40.4227C26.9064 40.5651 27.321 40.5863 27.7138 40.4835C27.8939 40.435 28.0656 40.3589 28.2229 40.258L36.5111 34.9338C36.7139 34.8051 36.8878 34.6352 37.0219 34.435C37.156 34.2347 37.2472 34.0085 37.2898 33.7708C37.3323 33.5281 37.3264 33.2793 37.2726 33.0389C37.2187 32.7985 37.1179 32.5713 36.976 32.3706C36.7447 32.0343 36.4166 31.7776 36.036 31.6352C35.6554 31.4928 35.2407 31.4715 34.8477 31.5742C34.6678 31.6227 34.4964 31.6987 34.3393 31.7996L31.1766 33.8319C30.6565 34.1652 30.089 34.4165 29.4936 34.5769C28.1893 34.9188 26.8124 34.8489 25.5488 34.3767C24.2852 33.9046 23.1958 33.0529 22.4277 31.9367C21.9561 31.2713 21.621 30.5176 21.4422 29.7199C21.2634 28.9222 21.2445 28.0966 21.3865 27.2914C21.527 26.5022 21.8293 25.7512 22.2741 25.0865C22.719 24.4218 23.2965 23.858 23.9699 23.4312L32.2573 18.1066C32.7776 17.7727 33.3456 17.5212 33.9415 17.3607C35.2457 17.0188 36.6226 17.0887 37.8862 17.5609C39.1498 18.033 40.2392 18.8847 41.0073 20.0009C41.4789 20.6663 41.814 21.42 41.9928 22.2177C42.1715 23.0154 42.1905 23.841 42.0485 24.6462C42.0002 24.9105 41.934 25.1712 41.8504 25.4264L41.6943 25.9062L41.2699 25.5923C40.2894 24.8655 39.1928 24.313 38.0277 23.9587L37.7196 23.8644L37.748 23.5545C37.7853 23.1137 37.6669 22.6737 37.4137 22.3124C37.1826 21.9761 36.8546 21.7195 36.4741 21.5772C36.0937 21.4348 35.6791 21.4136 35.2863 21.5164C35.1061 21.5649 34.9345 21.641 34.7772 21.7419L26.489 27.0663C26.2862 27.1949 26.1123 27.3648 25.9783 27.565C25.8444 27.7652 25.7533 27.9913 25.7109 28.229C25.6681 28.4717 25.6738 28.7206 25.7276 28.961C25.7813 29.2014 25.8821 29.4287 26.0241 29.6293C26.2554 29.9656 26.5835 30.2223 26.9641 30.3647C27.3446 30.5072 27.7594 30.5285 28.1524 30.4258C28.3324 30.3771 28.5041 30.3011 28.6614 30.2002L31.8237 28.1687C32.3435 27.8349 32.9111 27.5834 33.5065 27.423C34.8108 27.0812 36.1877 27.1511 37.4513 27.6232C38.7149 28.0954 39.8043 28.9471 40.5724 30.0633C41.044 30.7287 41.3791 31.4824 41.5579 32.28C41.7367 33.0777 41.7556 33.9034 41.6136 34.7086C41.473 35.4978 41.1707 36.2488 40.7258 36.9136C40.281 37.5784 39.7035 38.1423 39.0302 38.5694L30.7427 43.8935C30.2224 44.2274 29.6546 44.479 29.0587 44.6394Z" fill="white"/>
</svg>
