<svg width="64" height="76" viewBox="0 0 64 76" fill="none" xmlns="http://www.w3.org/2000/svg">
<path d="M11.252 73.5401C9.95469 74.9401 8.36336 75.6401 6.47802 75.6401C5.55402 75.6401 4.66736 75.3881 3.81802 74.8841C2.96869 74.3707 2.28269 73.6941 1.76002 72.8541C1.24669 72.0141 0.990023 71.1227 0.990023 70.1801C0.990023 69.2094 1.23736 68.3087 1.73202 67.4781C2.22669 66.6381 2.89402 65.9707 3.73402 65.4761C4.57402 64.9721 5.48869 64.7201 6.47802 64.7201C7.50469 64.7201 8.46136 64.9814 9.34802 65.5041L8.25602 68.0381C7.73336 67.6274 7.14069 67.4221 6.47802 67.4221C5.98336 67.4221 5.52136 67.5527 5.09202 67.8141C4.66269 68.0661 4.32202 68.4067 4.07002 68.8361C3.81802 69.2561 3.69202 69.7041 3.69202 70.1801C3.69202 70.6281 3.83669 71.0667 4.12602 71.4961C4.41536 71.9161 4.77936 72.2614 5.21802 72.5321C5.65669 72.8027 6.07669 72.9381 6.47802 72.9381C6.94469 72.9381 7.30869 72.8821 7.57002 72.7701C7.84069 72.6581 8.16269 72.4481 8.53602 72.1401V71.7901H7.51402V69.0601H11.252V73.5401ZM22.9169 70.1801C22.9169 71.1507 22.6695 72.0561 22.1749 72.8961C21.6802 73.7267 21.0129 74.3941 20.1729 74.8981C19.3329 75.3927 18.4229 75.6401 17.4429 75.6401C16.4535 75.6401 15.5389 75.3927 14.6989 74.8981C13.8589 74.3941 13.1915 73.7267 12.6969 72.8961C12.2022 72.0561 11.9549 71.1507 11.9549 70.1801C11.9549 69.2094 12.2022 68.3087 12.6969 67.4781C13.1915 66.6381 13.8589 65.9707 14.6989 65.4761C15.5389 64.9721 16.4535 64.7201 17.4429 64.7201C18.4229 64.7201 19.3329 64.9721 20.1729 65.4761C21.0129 65.9707 21.6802 66.6381 22.1749 67.4781C22.6695 68.3087 22.9169 69.2094 22.9169 70.1801ZM20.2289 70.1801C20.2289 69.7041 20.1029 69.2561 19.8509 68.8361C19.5989 68.4067 19.2582 68.0661 18.8289 67.8141C18.3995 67.5527 17.9375 67.4221 17.4429 67.4221C16.9482 67.4221 16.4862 67.5527 16.0569 67.8141C15.6275 68.0661 15.2869 68.4067 15.0349 68.8361C14.7829 69.2561 14.6569 69.7041 14.6569 70.1801C14.6569 70.6561 14.7829 71.1087 15.0349 71.5381C15.2869 71.9581 15.6275 72.2987 16.0569 72.5601C16.4862 72.8121 16.9482 72.9381 17.4429 72.9381C17.9375 72.9381 18.3995 72.8121 18.8289 72.5601C19.2582 72.2987 19.5989 71.9581 19.8509 71.5381C20.1029 71.1087 20.2289 70.6561 20.2289 70.1801ZM30.6524 75.5001H24.1004V64.8601H26.8164V72.7841H30.6524V75.5001ZM41.3373 75.5001H38.4253L37.8233 73.8481H34.5753L33.9873 75.5001H31.0753L35.0373 64.8601H37.3753L41.3373 75.5001ZM37.0533 71.7341L36.1993 69.3821L35.3593 71.7341H37.0533ZM51.315 75.5001H48.599L44.959 70.1101V75.5001H42.243V64.8601H44.959L48.599 70.8241V64.8601H51.315V75.5001ZM62.7676 73.5401C61.4703 74.9401 59.879 75.6401 57.9936 75.6401C57.0696 75.6401 56.183 75.3881 55.3336 74.8841C54.4843 74.3707 53.7983 73.6941 53.2756 72.8541C52.7623 72.0141 52.5056 71.1227 52.5056 70.1801C52.5056 69.2094 52.753 68.3087 53.2476 67.4781C53.7423 66.6381 54.4096 65.9707 55.2496 65.4761C56.0896 64.9721 57.0043 64.7201 57.9936 64.7201C59.0203 64.7201 59.977 64.9814 60.8636 65.5041L59.7716 68.0381C59.249 67.6274 58.6563 67.4221 57.9936 67.4221C57.499 67.4221 57.037 67.5527 56.6076 67.8141C56.1783 68.0661 55.8376 68.4067 55.5856 68.8361C55.3336 69.2561 55.2076 69.7041 55.2076 70.1801C55.2076 70.6281 55.3523 71.0667 55.6416 71.4961C55.931 71.9161 56.295 72.2614 56.7336 72.5321C57.1723 72.8027 57.5923 72.9381 57.9936 72.9381C58.4603 72.9381 58.8243 72.8821 59.0856 72.7701C59.3563 72.6581 59.6783 72.4481 60.0516 72.1401V71.7901H59.0296V69.0601H62.7676V73.5401Z" fill="white"/>
<path d="M33.6063 0.615248C17.3732 -0.879336 1.99918 12.3731 0.60626 28.6152C-0.313026 39.3346 4.81043 49.9162 13 56.107C17.7724 59.7147 23.586 61.8313 29.8518 61.6152C45.6212 61.0715 62.7132 46.3899 62.3518 30.6152C62.0063 15.5384 48.6235 1.99789 33.6063 0.615248Z" fill="#D9D9D9" stroke="black"/>
<g clip-path="url(#clip0_1_91)">
<mask id="mask0_1_91" style="mask-type:alpha" maskUnits="userSpaceOnUse" x="0" y="-1" width="63" height="63">
<path d="M33.6063 -0.384752C17.3732 -1.87934 1.99918 11.3731 0.60626 27.6152C-0.313026 38.3346 4.81043 48.9162 13 55.107C17.7724 58.7147 23.586 60.8313 29.8518 60.6152C45.6212 60.0715 62.7132 45.3899 62.3518 29.6152C62.0063 14.5384 48.6235 0.997889 33.6063 -0.384752Z" fill="#D9D9D9" stroke="black"/>
</mask>
<g mask="url(#mask0_1_91)">
<path d="M42.5626 27.1561C41.1957 24.7354 42.1823 21.5903 44.7662 20.1312C47.3502 18.6721 50.553 19.4517 51.9198 21.8724C53.2867 24.293 52.3001 27.4382 49.7162 28.8973C47.1322 30.3563 43.9294 29.5768 42.5626 27.1561Z" fill="#384E54"/>
<path d="M17.5689 27.1563C18.9358 24.7356 17.9491 21.5904 15.3652 20.1314C12.7813 18.6723 9.57849 19.4519 8.2116 21.8725C6.84472 24.2932 7.83134 27.4384 10.4153 28.8975C12.9992 30.3565 16.202 29.577 17.5689 27.1563Z" fill="#384E54"/>
<path d="M30.129 17.9091C28.574 17.9232 27.0207 17.9781 25.4657 18.0357C17.1219 18.3445 10.3125 24.9825 10.3125 33.375V61.5H49.6875V33.375C49.6875 24.9821 43.1241 18.6219 34.795 18.0357C33.24 17.926 31.6839 17.8965 30.129 17.9091Z" fill="#384E54"/>
<path d="M13.9799 23.0869C14.6261 23.4518 16.5368 24.7763 16.7656 25.4045C17.0235 26.1125 16.9898 26.9032 16.6044 27.5856C16.117 28.4488 15.1907 28.9196 14.2189 28.9024C13.7409 28.8884 11.7997 28.0065 11.3465 27.7506C9.97183 26.9745 9.44695 25.3012 10.1741 24.0133C10.9013 22.7255 12.6052 22.3106 13.9799 23.0869Z" fill="#76E1FE"/>
<path d="M31.2215 38.0467H28.6366C28.1518 38.0467 27.7588 38.4397 27.7588 38.9245V42.1348C27.7588 42.6196 28.1518 43.0126 28.6366 43.0126H31.2215C31.7063 43.0126 32.0994 42.6196 32.0994 42.1348V38.9245C32.0994 38.4397 31.7063 38.0467 31.2215 38.0467Z" fill="black" fill-opacity="0.328502"/>
<path d="M30 20.7188C17.3438 20.7188 13.125 25.9435 13.125 33.3751V61.5001H46.875C46.8063 51.1554 46.875 36.1876 46.875 33.3751C46.875 25.9433 42.6563 20.7188 30 20.7188Z" fill="#76E1FE"/>
<path d="M45.5729 23.0869C44.9267 23.4518 43.016 24.7763 42.7872 25.4045C42.5293 26.1125 42.5631 26.9032 42.9484 27.5856C43.4358 28.4488 44.3621 28.9196 45.3339 28.9024C45.8119 28.8884 47.7531 28.0065 48.2063 27.7506C49.581 26.9745 50.1058 25.3012 49.3787 24.0133C48.6515 22.7255 46.9476 22.3106 45.5729 23.0869Z" fill="#76E1FE"/>
<path d="M37.2784 37.0956C40.8927 37.0956 43.8227 34.1657 43.8227 30.5514C43.8227 26.9371 40.8927 24.007 37.2784 24.007C33.6641 24.007 30.7341 26.9371 30.7341 30.5514C30.7341 34.1657 33.6641 37.0956 37.2784 37.0956Z" fill="white"/>
<path d="M22.0399 37.3458C25.7924 37.3458 28.8344 34.3039 28.8344 30.5514C28.8344 26.7989 25.7924 23.7569 22.0399 23.7569C18.2874 23.7569 15.2454 26.7989 15.2454 30.5514C15.2454 34.3039 18.2874 37.3458 22.0399 37.3458Z" fill="white"/>
<path d="M31.4869 38.3745H28.3713C27.8075 38.3745 27.3505 38.8316 27.3505 39.3954V43.1283C27.3505 43.6921 27.8075 44.149 28.3713 44.149H31.4869C32.0507 44.149 32.5077 43.6921 32.5077 43.1283V39.3954C32.5077 38.8316 32.0507 38.3745 31.4869 38.3745Z" fill="black" fill-opacity="0.329412"/>
<path d="M31.4869 37.4014H28.3713C27.8075 37.4014 27.3505 37.8583 27.3505 38.4221V42.155C27.3505 42.7188 27.8075 43.1759 28.3713 43.1759H31.4869C32.0507 43.1759 32.5077 42.7188 32.5077 42.155V38.4221C32.5077 37.8583 32.0507 37.4014 31.4869 37.4014Z" fill="#FFFCFB"/>
<path d="M35.6246 39.2346C35.6246 40.413 34.3995 41.018 32.6086 40.8741C32.5753 40.8741 32.5411 40.0297 32.2512 40.0539C31.5429 40.113 30.7101 40.0257 29.8803 40.0257C29.0183 40.0257 28.1839 40.2826 27.5101 40.0498C27.3551 39.9963 27.2593 40.8707 27.1423 40.8676C25.3934 40.8212 24.219 40.3919 24.219 39.2339C24.219 37.5298 26.7722 36.1484 29.9218 36.1484C33.0714 36.1484 35.6246 37.5305 35.6246 39.2346Z" fill="black" fill-opacity="0.329412"/>
<path d="M35.5933 38.0695C35.5933 38.8689 34.9834 39.2723 33.9928 39.4757C33.5823 39.5601 33.1064 39.6109 32.5813 39.6398C31.7881 39.6848 30.8829 39.6834 29.9218 39.6834C28.9756 39.6834 28.0836 39.6834 27.2993 39.6426C26.8686 39.6187 26.4704 39.5821 26.1136 39.5245C24.9691 39.3391 24.2504 38.938 24.2504 38.0698C24.2504 36.4384 26.7895 35.1159 29.9218 35.1159C33.0541 35.1159 35.5933 36.4381 35.5933 38.0695Z" fill="#C38C74"/>
<path d="M29.9218 37.3571C31.5374 37.3571 32.8471 36.5111 32.8471 35.4674C32.8471 34.4238 31.5374 33.5778 29.9218 33.5778C28.3062 33.5778 26.9966 34.4238 26.9966 35.4674C26.9966 36.5111 28.3062 37.3571 29.9218 37.3571Z" fill="#23201F"/>
<path d="M24.9575 33.3119C26.4821 33.3119 27.7181 32.076 27.7181 30.5514C27.7181 29.0268 26.4821 27.7907 24.9575 27.7907C23.4329 27.7907 22.1969 29.0268 22.1969 30.5514C22.1969 32.076 23.4329 33.3119 24.9575 33.3119Z" fill="#171311"/>
<path d="M39.9986 33.3119C41.5232 33.3119 42.7592 32.076 42.7592 30.5514C42.7592 29.0268 41.5232 27.7907 39.9986 27.7907C38.474 27.7907 37.2381 29.0268 37.2381 30.5514C37.2381 32.076 38.474 33.3119 39.9986 33.3119Z" fill="#171311"/>
<path d="M14.5391 26.218C12.8931 24.6943 11.6886 25.1322 11.6644 25.1684" stroke="#384E54" stroke-width="0.397309" stroke-linecap="round"/>
<path d="M13.6668 25.7152C12.0376 25.7659 11.773 26.6017 11.7841 26.6326M44.9492 26.0769C46.5951 24.5533 47.7996 24.9913 47.8238 25.0276" stroke="#384E54" stroke-width="0.397309" stroke-linecap="round"/>
<path d="M45.9213 25.3746C47.5505 25.4252 47.8151 26.2609 47.804 26.2918" stroke="#384E54" stroke-width="0.397309" stroke-linecap="round"/>
</g>
</g>
<defs>
<clipPath id="clip0_1_91">
<rect width="45" height="45" fill="white" transform="translate(7.50002 16.5001)"/>
</clipPath>
</defs>
</svg>
