<svg width="320" height="222" viewBox="0 0 320 222" fill="none" xmlns="http://www.w3.org/2000/svg">
<path d="M55.922 216H53.206V210.61L49.818 215.636L46.416 210.61V216H43.7V205.36H46.416L49.818 210.918L53.206 205.36H55.922V216ZM67.4672 205.36L63.5052 210.946V216H60.7472L60.7612 210.932L56.8272 205.36H60.2012L62.1472 208.202L64.0792 205.36H67.4672ZM76.5957 213.06C76.4091 215.132 75.0931 216.201 72.6477 216.266C71.0424 216.219 69.6517 215.776 68.4757 214.936L69.4277 212.724C70.7251 213.517 71.8264 213.905 72.7317 213.886C73.3851 213.821 73.7117 213.531 73.7117 213.018C73.7117 212.523 73.1191 212.159 71.9337 211.926C69.4231 211.431 68.2144 210.199 68.3077 208.23C68.5411 206.149 69.8944 205.085 72.3677 205.038C73.7397 205.038 74.9764 205.416 76.0777 206.172L75.1677 208.398C74.3184 207.838 73.4457 207.535 72.5497 207.488C72.1857 207.488 71.8871 207.563 71.6537 207.712C71.4297 207.861 71.3177 208.039 71.3177 208.244C71.3177 208.477 71.4671 208.701 71.7657 208.916C72.0644 209.131 72.5171 209.299 73.1237 209.42C75.5504 209.896 76.7077 211.109 76.5957 213.06ZM90.198 213.76L88.868 216.14L86.684 214.95C85.6854 215.743 84.5327 216.14 83.226 216.14C82.2367 216.14 81.322 215.893 80.482 215.398C79.642 214.894 78.9747 214.227 78.48 213.396C77.9854 212.556 77.738 211.651 77.738 210.68C77.738 209.709 77.9854 208.809 78.48 207.978C78.9747 207.138 79.642 206.471 80.482 205.976C81.322 205.472 82.2367 205.22 83.226 205.22C84.206 205.22 85.116 205.472 85.956 205.976C86.796 206.471 87.4634 207.138 87.958 207.978C88.4527 208.809 88.7 209.709 88.7 210.68C88.7 211.427 88.5787 212.113 88.336 212.738L90.198 213.76ZM86.012 210.68C86.012 210.204 85.886 209.756 85.634 209.336C85.382 208.907 85.0414 208.566 84.612 208.314C84.1827 208.053 83.7207 207.922 83.226 207.922C82.7314 207.922 82.2694 208.053 81.84 208.314C81.4107 208.566 81.07 208.907 80.818 209.336C80.566 209.756 80.44 210.204 80.44 210.68C80.44 211.156 80.566 211.609 80.818 212.038C81.07 212.458 81.4107 212.799 81.84 213.06C82.2694 213.312 82.7314 213.438 83.226 213.438C83.4407 213.438 83.6367 213.419 83.814 213.382L82.274 212.542L83.618 210.162L85.928 211.436C85.984 211.221 86.012 210.969 86.012 210.68ZM97.6661 216H91.1141V205.36H93.8301V213.284H97.6661V216Z" fill="white"/>
<path d="M73.1062 141.115C56.8731 139.621 41.4992 152.873 40.1062 169.115C39.187 179.835 44.3104 190.416 52.5 196.607C57.2724 200.215 63.086 202.331 69.3518 202.115C85.1212 201.571 102.213 186.89 101.852 171.115C101.506 156.038 88.1235 142.498 73.1062 141.115Z" fill="#D9D9D9" stroke="black"/>
<path fill-rule="evenodd" clip-rule="evenodd" d="M81.088 156.435C80.8524 156.435 80.6862 156.463 80.5185 156.504V156.532H80.5455C80.6577 156.754 80.8524 156.908 80.9901 157.102C81.102 157.324 81.1993 157.546 81.3103 157.768C81.324 157.755 81.3373 157.74 81.3373 157.74C81.5332 157.602 81.6302 157.38 81.6302 157.046C81.5462 156.948 81.5332 156.852 81.4631 156.754C81.3801 156.615 81.1993 156.546 81.088 156.435Z" fill="#5B85A4"/>
<path d="M58.9892 183.853H57.0651C56.9972 180.605 56.8098 177.551 56.5032 174.691H56.4862L53.5567 183.853H52.0917L49.1798 174.691H49.1627C48.9467 177.438 48.8108 180.492 48.7544 183.853H47C47.1134 179.765 47.397 175.934 47.8511 172.357H50.236L53.0119 180.804H53.0289L55.8219 172.357H58.1038C58.6035 176.546 58.8985 180.379 58.9892 183.853Z" fill="#2C7493"/>
<path d="M67.3343 175.371C66.5507 179.623 65.5172 182.712 64.2345 184.639C63.2349 186.124 62.1399 186.867 60.9476 186.867C60.6297 186.867 60.2378 186.771 59.7726 186.581V185.556C59.9999 185.589 60.2665 185.607 60.5731 185.607C61.1294 185.607 61.5777 185.453 61.9187 185.147C62.3272 184.773 62.5316 184.352 62.5316 183.887C62.5316 183.569 62.3722 182.916 62.0547 181.929L59.9431 175.371H61.8333L63.3489 180.276C63.6893 181.389 63.8313 182.166 63.7745 182.609C64.6035 180.395 65.1825 177.983 65.512 175.371H67.3343Z" fill="#2C7493"/>
<path d="M92.9478 183.853H87.4813V172.357H89.3208V182.439H92.9478V183.853Z" fill="#F18513"/>
<path fill-rule="evenodd" clip-rule="evenodd" d="M79.2046 181.553C78.739 180.804 78.5057 179.601 78.5057 177.943C78.5057 175.048 79.386 173.6 81.1456 173.6C82.0656 173.6 82.7408 173.946 83.1726 174.638C83.6377 175.388 83.8709 176.58 83.8709 178.215C83.8709 181.133 82.9907 182.593 81.2311 182.593C80.3113 182.593 79.6358 182.247 79.2046 181.553ZM86.0508 184.13L83.9377 183.088C84.1259 182.934 84.3045 182.767 84.4663 182.575C85.3634 181.52 85.8125 179.959 85.8125 177.892C85.8125 174.089 84.3194 172.186 81.3334 172.186C79.8688 172.186 78.7274 172.668 77.9101 173.634C77.0126 174.69 76.5645 176.246 76.5645 178.301C76.5645 180.322 76.9615 181.804 77.7563 182.746C78.4831 183.597 79.5789 184.023 81.0438 184.023C81.5908 184.023 82.0926 183.956 82.5488 183.821L85.3005 185.422L86.0508 184.13Z" fill="#F18513"/>
<path d="M75.7629 180.666C75.7629 181.641 75.4046 182.442 74.6906 183.068C73.9759 183.691 73.0158 184.004 71.8136 184.004C70.6891 184.004 69.5993 183.644 68.5436 182.931L69.0375 181.943C69.9459 182.397 70.768 182.624 71.5061 182.624C72.1985 182.624 72.7404 182.47 73.1325 182.165C73.5236 181.859 73.7581 181.431 73.7581 180.889C73.7581 180.206 73.2821 179.623 72.4086 179.133C71.6023 178.691 69.9907 177.767 69.9907 177.767C69.1176 177.13 68.6799 176.446 68.6799 175.32C68.6799 174.389 69.0063 173.636 69.6584 173.064C70.3119 172.49 71.155 172.203 72.1875 172.203C73.2548 172.203 74.2252 172.488 75.0993 173.055L74.6553 174.042C73.9074 173.725 73.1699 173.566 72.4428 173.566C71.8528 173.566 71.3981 173.707 71.0811 173.992C70.7624 174.275 70.5653 174.638 70.5653 175.082C70.5653 175.762 71.0517 176.353 71.9498 176.852C72.7663 177.295 74.4173 178.236 74.4173 178.236C75.3153 178.872 75.7629 179.55 75.7629 180.666Z" fill="#F18513"/>
<path fill-rule="evenodd" clip-rule="evenodd" d="M95.2561 168.506C94.1443 168.478 93.2834 168.589 92.5613 168.895C92.353 168.978 92.02 168.978 91.9915 169.242C92.1034 169.353 92.1167 169.533 92.2147 169.687C92.3809 169.965 92.672 170.339 92.9364 170.534C93.2282 170.756 93.5199 170.978 93.8259 171.172C94.3672 171.507 94.9786 171.701 95.5057 172.034C95.8123 172.228 96.1168 172.478 96.4233 172.687C96.5756 172.798 96.672 172.979 96.8673 173.048V173.006C96.7694 172.881 96.7421 172.701 96.6453 172.561C96.5067 172.423 96.3675 172.297 96.2283 172.159C95.8253 171.617 95.3246 171.145 94.7842 170.756C94.3393 170.45 93.3665 170.033 93.1866 169.521C93.1866 169.521 93.1721 169.506 93.1584 169.493C93.4641 169.464 93.8259 169.353 94.1173 169.269C94.5889 169.144 95.0196 169.172 95.5057 169.048C95.7283 168.992 95.9506 168.922 96.1737 168.853V168.728C95.9224 168.478 95.7425 168.144 95.4787 167.908C94.7708 167.297 93.9921 166.701 93.1866 166.2C92.7554 165.922 92.1998 165.742 91.7413 165.505C91.5754 165.422 91.2979 165.381 91.2003 165.241C90.9501 164.936 90.8106 164.533 90.6304 164.172C90.228 163.409 89.8383 162.561 89.4917 161.755C89.2418 161.213 89.089 160.672 88.7833 160.172C87.3519 157.81 85.7968 156.38 83.4077 154.977C82.8936 154.685 82.2826 154.56 81.6302 154.407C81.2824 154.392 80.9355 154.365 80.5882 154.352C80.3656 154.254 80.1431 153.99 79.949 153.865C79.1569 153.365 77.1159 152.282 76.5321 153.712C76.157 154.616 77.0877 155.504 77.4073 155.963C77.6433 156.282 77.9492 156.644 78.1151 157.004C78.2125 157.24 78.2404 157.491 78.338 157.741C78.56 158.352 78.7681 159.032 79.0604 159.602C79.2126 159.894 79.3791 160.2 79.5735 160.463C79.6857 160.616 79.8795 160.685 79.9214 160.936C79.7276 161.213 79.7124 161.63 79.6014 161.977C79.1017 163.547 79.2957 165.492 80.0045 166.644C80.2262 166.992 80.7547 167.756 81.4631 167.463C82.0882 167.214 81.9493 166.422 82.1297 165.728C82.1713 165.56 82.1434 165.45 82.2265 165.339V165.367C82.4209 165.755 82.6158 166.13 82.7963 166.52C83.2275 167.2 83.9769 167.908 84.6025 168.38C84.9349 168.631 85.199 169.061 85.6157 169.214V169.172H85.5884C85.5047 169.048 85.3801 168.992 85.2688 168.895C85.0189 168.645 84.7417 168.339 84.5464 168.061C83.9632 167.284 83.4486 166.422 82.9913 165.533C82.7684 165.102 82.5743 164.63 82.3936 164.199C82.3105 164.034 82.3105 163.783 82.1713 163.7C81.9623 164.005 81.6575 164.269 81.505 164.643C81.2409 165.241 81.2133 165.977 81.1153 166.741C81.0601 166.756 81.088 166.741 81.0601 166.769C80.6161 166.658 80.4633 166.2 80.2962 165.812C79.8795 164.825 79.8095 163.241 80.1713 162.102C80.268 161.811 80.6859 160.894 80.5185 160.616C80.4345 160.351 80.157 160.2 80.0045 159.991C79.8243 159.727 79.6287 159.394 79.505 159.102C79.1714 158.324 79.0037 157.463 78.6437 156.685C78.4769 156.323 78.1846 155.948 77.9492 155.616C77.6848 155.24 77.3934 154.977 77.1847 154.533C77.1159 154.38 77.0185 154.129 77.1292 153.963C77.1565 153.852 77.2129 153.81 77.3242 153.782C77.5038 153.629 78.0184 153.823 78.1985 153.907C78.7129 154.114 79.1435 154.31 79.5735 154.601C79.7682 154.74 79.9766 155.004 80.2262 155.074H80.5185C80.9628 155.171 81.4631 155.101 81.8801 155.227C82.6158 155.463 83.2824 155.81 83.8801 156.185C85.6991 157.338 87.1993 158.978 88.2129 160.936C88.3799 161.255 88.45 161.547 88.6025 161.879C88.8943 162.562 89.2557 163.256 89.5469 163.922C89.8383 164.575 90.1167 165.241 90.534 165.784C90.7417 166.075 91.5754 166.228 91.9505 166.381C92.2277 166.505 92.6589 166.616 92.9091 166.769C93.3813 167.06 93.8526 167.394 94.2978 167.714C94.5195 167.881 95.2142 168.228 95.2561 168.506Z" fill="#2C7493"/>
<path d="M94.2607 183.852H94.5655V182.682H94.9644V182.443H93.8464V182.682H94.2607V183.852ZM96.58 183.852H96.8673V182.443H96.4352L96.0835 183.403L95.7007 182.443H95.2843V183.852H95.5561V182.78H95.5716L95.9725 183.852H96.1797L96.58 182.78V183.852Z" fill="#F18513"/>
</svg>
