<svg width="63" height="76" viewBox="0 0 63 76" fill="none" xmlns="http://www.w3.org/2000/svg">
<path d="M26.972 64.8601L23.01 75.5001H20.672L16.71 64.8601H19.622L21.834 70.9781L24.06 64.8601H26.972ZM37.8038 70.5301C37.8038 71.5474 37.5751 72.4434 37.1178 73.2181C36.6604 73.9927 36.0444 74.5901 35.2698 75.0101C34.4951 75.4301 33.6551 75.6401 32.7498 75.6401C31.8351 75.6401 30.9904 75.4301 30.2158 75.0101C29.4411 74.5901 28.8251 73.9927 28.3678 73.2181C27.9104 72.4434 27.6818 71.5474 27.6818 70.5301L27.6678 64.8741L30.4258 64.8601V70.6701C30.4258 71.1087 30.5331 71.5054 30.7478 71.8601C30.9624 72.2054 31.2471 72.4761 31.6018 72.6721C31.9564 72.8587 32.3391 72.9521 32.7498 72.9521C33.1604 72.9521 33.5431 72.8587 33.8978 72.6721C34.2524 72.4761 34.5371 72.2054 34.7518 71.8601C34.9664 71.5054 35.0738 71.1087 35.0738 70.6701V64.8601L37.8178 64.8741L37.8038 70.5301ZM45.5587 75.5001H39.0067V64.8601H45.5587V67.5761H41.7227V68.8221H45.5587V71.5381H41.7227V72.7841H45.5587V75.5001Z" fill="white"/>
<path d="M33.6063 0.615248C17.3732 -0.879336 1.99919 12.3731 0.606267 28.6152C-0.313018 39.3346 4.81044 49.9162 13 56.107C17.7724 59.7147 23.586 61.8313 29.8518 61.6152C45.6212 61.0715 62.7132 46.3899 62.3518 30.6152C62.0063 15.5384 48.6235 1.99789 33.6063 0.615248Z" fill="#D9D9D9" stroke="black"/>
<g clip-path="url(#clip0_3_12)">
<path d="M35.194 19.5002L31.499 25.9664L27.8041 19.5002H15.4994L31.499 47.4999L47.4986 19.5002H35.194Z" fill="#41B883"/>
<path d="M35.194 19.5002L31.499 25.9664L27.8041 19.5002H21.8993L31.499 36.2997L41.0988 19.5002H35.194Z" fill="#34495E"/>
</g>
<defs>
<clipPath id="clip0_3_12">
<rect width="32" height="28" fill="white" transform="translate(15.5 19.5001)"/>
</clipPath>
</defs>
</svg>
