<svg width="65" height="76" viewBox="0 0 65 76" fill="none" xmlns="http://www.w3.org/2000/svg">
<path d="M7.252 75.5001H0.7V64.8601H3.416V72.7841H7.252V75.5001ZM17.9368 75.5001H15.0248L14.4228 73.8481H11.1748L10.5868 75.5001H7.67484L11.6368 64.8601H13.9748L17.9368 75.5001ZM13.6528 71.7341L12.7988 69.3821L11.9588 71.7341H13.6528ZM27.3826 75.5001H24.4006L22.3426 71.9581H21.5586V75.5001H18.8426V64.8601H22.5946C23.3226 64.8601 23.9899 65.0281 24.5966 65.3641C25.2032 65.7001 25.6792 66.1481 26.0246 66.7081C26.3699 67.2681 26.5426 67.8701 26.5426 68.5141C26.5426 69.6527 26.0339 70.5721 25.0166 71.2721L27.3826 75.5001ZM23.8826 68.4161C23.8732 68.1547 23.7519 67.9354 23.5186 67.7581C23.2852 67.5714 22.9819 67.4781 22.6086 67.4781H21.6146L21.6006 69.3121H22.7066C23.0799 69.3121 23.3692 69.2281 23.5746 69.0601C23.7799 68.8921 23.8826 68.6774 23.8826 68.4161ZM38.0618 75.5001H35.1498L34.5478 73.8481H31.2998L30.7118 75.5001H27.7998L31.7618 64.8601H34.0998L38.0618 75.5001ZM33.7778 71.7341L32.9238 69.3821L32.0838 71.7341H33.7778ZM48.7396 64.8601L44.7776 75.5001H42.4396L38.4776 64.8601H41.3896L43.6016 70.9781L45.8276 64.8601H48.7396ZM56.1973 75.5001H49.6453V64.8601H56.1973V67.5761H52.3613V68.8221H56.1973V71.5381H52.3613V72.7841H56.1973V75.5001ZM63.9356 75.5001H57.3836V64.8601H60.0996V72.7841H63.9356V75.5001Z" fill="white"/>
<path d="M35.1062 0.615248C18.8731 -0.879336 3.49916 12.3731 2.10624 28.6152C1.18695 39.3346 6.31041 49.9162 14.5 56.107C19.2724 59.7147 25.086 61.8313 31.3518 61.6152C47.1212 61.0715 64.2132 46.3899 63.8518 30.6152C63.5063 15.5384 50.1235 1.99789 35.1062 0.615248Z" fill="#D9D9D9" stroke="black"/>
<path d="M28.9698 50.4013L16.3289 43.106C16.1425 42.9853 16 42.9195 16 42.6782V20.6386C16 20.4597 16.1096 20.3424 16.2083 20.2876L22.6219 16.5906C22.8302 16.4699 23.0056 16.4699 23.203 16.5906L29.5728 20.2547C29.8249 20.3973 29.8359 20.5838 29.8359 20.7484V34.3955L35.1532 31.3348V24.3576C35.1532 24.1163 35.2628 23.9736 35.5259 23.8201L41.8738 20.1669C42.0272 20.0792 42.1478 20.0792 42.3013 20.1669L48.7698 23.8969C48.9781 24.0175 49 24.1601 49 24.3686V31.62C49 31.8504 48.9452 31.9711 48.7149 32.1137L42.6083 35.6242V42.5794C42.6083 42.8537 42.5425 42.9634 42.3013 43.106L29.6166 50.4013C29.3754 50.533 29.211 50.533 28.9698 50.4013ZM28.7724 49.052V42.9305L22.7206 39.5077C22.5233 39.3871 22.3807 39.2993 22.3807 39.0031V24.7087L17.0525 21.6479V42.3052L28.7724 49.052ZM41.5558 42.3052V36.2276L29.8359 42.9305V49.052L41.5558 42.3052ZM40.9961 35.3243L35.6904 32.2453L24.0033 38.9921L29.2877 41.998L40.9961 35.3243ZM28.7724 34.9989V21.637L23.4551 24.7087V38.0706L28.7724 34.9989ZM41.5558 34.3846V28.3289L36.2276 25.2572V31.3348L41.5558 34.3846ZM47.9365 31.3348V25.2572L42.6083 28.3289V34.3846L47.9365 31.3348ZM42.0821 27.3964L47.3884 24.3357L42.0821 21.2749L36.7648 24.3357L42.0821 27.3964ZM28.2272 20.7155L22.907 17.6547L17.6007 20.7154L22.907 23.7872L28.2272 20.7155Z" fill="#FF2D20"/>
</svg>
