<svg width="63" height="76" viewBox="0 0 63 76" fill="none" xmlns="http://www.w3.org/2000/svg">
<path d="M16.422 75.5001H13.706V70.1101L10.318 75.1361L6.916 70.1101V75.5001H4.2V64.8601H6.916L10.318 70.4181L13.706 64.8601H16.422V75.5001ZM27.9672 64.8601L24.0052 70.4461V75.5001H21.2472L21.2612 70.4321L17.3272 64.8601H20.7012L22.6472 67.7021L24.5792 64.8601H27.9672ZM37.0957 72.5601C36.9091 74.6321 35.5931 75.7007 33.1477 75.7661C31.5424 75.7194 30.1517 75.2761 28.9757 74.4361L29.9277 72.2241C31.2251 73.0174 32.3264 73.4047 33.2317 73.3861C33.8851 73.3207 34.2117 73.0314 34.2117 72.5181C34.2117 72.0234 33.6191 71.6594 32.4337 71.4261C29.9231 70.9314 28.7144 69.6994 28.8077 67.7301C29.0411 65.6487 30.3944 64.5847 32.8677 64.5381C34.2397 64.5381 35.4764 64.9161 36.5777 65.6721L35.6677 67.8981C34.8184 67.3381 33.9457 67.0347 33.0497 66.9881C32.6857 66.9881 32.3871 67.0627 32.1537 67.2121C31.9297 67.3614 31.8177 67.5387 31.8177 67.7441C31.8177 67.9774 31.9671 68.2014 32.2657 68.4161C32.5644 68.6307 33.0171 68.7987 33.6237 68.9201C36.0504 69.3961 37.2077 70.6094 37.0957 72.5601ZM50.698 73.2601L49.368 75.6401L47.184 74.4501C46.1854 75.2434 45.0327 75.6401 43.726 75.6401C42.7367 75.6401 41.822 75.3927 40.982 74.8981C40.142 74.3941 39.4747 73.7267 38.98 72.8961C38.4854 72.0561 38.238 71.1507 38.238 70.1801C38.238 69.2094 38.4854 68.3087 38.98 67.4781C39.4747 66.6381 40.142 65.9707 40.982 65.4761C41.822 64.9721 42.7367 64.7201 43.726 64.7201C44.706 64.7201 45.616 64.9721 46.456 65.4761C47.296 65.9707 47.9634 66.6381 48.458 67.4781C48.9527 68.3087 49.2 69.2094 49.2 70.1801C49.2 70.9267 49.0787 71.6127 48.836 72.2381L50.698 73.2601ZM46.512 70.1801C46.512 69.7041 46.386 69.2561 46.134 68.8361C45.882 68.4067 45.5414 68.0661 45.112 67.8141C44.6827 67.5527 44.2207 67.4221 43.726 67.4221C43.2314 67.4221 42.7694 67.5527 42.34 67.8141C41.9107 68.0661 41.57 68.4067 41.318 68.8361C41.066 69.2561 40.94 69.7041 40.94 70.1801C40.94 70.6561 41.066 71.1087 41.318 71.5381C41.57 71.9581 41.9107 72.2987 42.34 72.5601C42.7694 72.8121 43.2314 72.9381 43.726 72.9381C43.9407 72.9381 44.1367 72.9194 44.314 72.8821L42.774 72.0421L44.118 69.6621L46.428 70.9361C46.484 70.7214 46.512 70.4694 46.512 70.1801ZM58.1661 75.5001H51.6141V64.8601H54.3301V72.7841H58.1661V75.5001Z" fill="white"/>
<path d="M33.6062 0.615248C17.3731 -0.879336 1.99916 12.3731 0.606237 28.6152C-0.313049 39.3346 4.81041 49.9162 13 56.107C17.7724 59.7147 23.586 61.8313 29.8518 61.6152C45.6212 61.0715 62.7132 46.3899 62.3518 30.6152C62.0063 15.5384 48.6235 1.99789 33.6062 0.615248Z" fill="#D9D9D9" stroke="black"/>
<path fill-rule="evenodd" clip-rule="evenodd" d="M41.588 15.9348C41.3524 15.9348 41.1862 15.9633 41.0185 16.0045V16.0324H41.0455C41.1577 16.2541 41.3524 16.4082 41.4901 16.6023C41.602 16.8245 41.6993 17.0459 41.8103 17.2685C41.824 17.2549 41.8373 17.2403 41.8373 17.2403C42.0332 17.102 42.1302 16.88 42.1302 16.5462C42.0462 16.4482 42.0332 16.3518 41.9631 16.2541C41.8801 16.1155 41.6993 16.0461 41.588 15.9348Z" fill="#5B85A4"/>
<path d="M19.4892 43.353H17.5651C17.4972 40.1053 17.3098 37.0515 17.0032 34.1908H16.9862L14.0567 43.353H12.5917L9.67983 34.1908H9.66268C9.44668 36.9381 9.31082 39.9919 9.25437 43.353H7.5C7.61337 39.2654 7.89704 35.4337 8.35114 31.8569H10.736L13.5119 40.3039H13.5289L16.3219 31.8569H18.6038C19.1035 36.0459 19.3985 39.8789 19.4892 43.353Z" fill="#2C7493"/>
<path d="M27.8343 34.8713C27.0507 39.1227 26.0172 42.2121 24.7345 44.1395C23.7349 45.6245 22.6399 46.3671 21.4476 46.3671C21.1297 46.3671 20.7378 46.2713 20.2726 46.0811V45.0562C20.4999 45.0895 20.7665 45.1072 21.0731 45.1072C21.6294 45.1072 22.0777 44.9535 22.4187 44.6467C22.8272 44.2728 23.0316 43.8525 23.0316 43.3868C23.0316 43.0687 22.8722 42.416 22.5547 41.4287L20.4431 34.8713H22.3333L23.8489 39.7756C24.1893 40.8891 24.3313 41.6664 24.2745 42.1095C25.1035 39.8955 25.6825 37.4826 26.012 34.8713H27.8343Z" fill="#2C7493"/>
<path d="M53.4478 43.353H47.9813V31.8569H49.8208V41.9389H53.4478V43.353Z" fill="#F18513"/>
<path fill-rule="evenodd" clip-rule="evenodd" d="M39.7046 41.0533C39.239 40.3039 39.0057 39.1014 39.0057 37.4432C39.0057 34.5484 39.886 33.1 41.6456 33.1C42.5656 33.1 43.2408 33.4464 43.6726 34.1385C44.1377 34.8882 44.3709 36.0803 44.3709 37.7153C44.3709 40.6333 43.4907 42.0928 41.7311 42.0928C40.8113 42.0928 40.1358 41.7468 39.7046 41.0533ZM46.5508 43.6302L44.4377 42.5882C44.6259 42.4339 44.8045 42.2674 44.9663 42.0747C45.8634 41.02 46.3125 39.4589 46.3125 37.3921C46.3125 33.5889 44.8194 31.6862 41.8334 31.6862C40.3688 31.6862 39.2274 32.1685 38.4101 33.1344C37.5126 34.1904 37.0645 35.7456 37.0645 37.8009C37.0645 39.8216 37.4615 41.304 38.2563 42.2457C38.9831 43.0969 40.0789 43.5231 41.5438 43.5231C42.0908 43.5231 42.5926 43.4557 43.0488 43.321L45.8005 44.9224L46.5508 43.6302Z" fill="#F18513"/>
<path d="M36.2629 40.1664C36.2629 41.1414 35.9046 41.9418 35.1906 42.568C34.4759 43.1915 33.5158 43.5041 32.3136 43.5041C31.1891 43.5041 30.0993 43.1443 29.0436 42.4307L29.5375 41.4431C30.4459 41.8973 31.268 42.124 32.0061 42.124C32.6985 42.124 33.2404 41.9699 33.6325 41.6655C34.0236 41.3589 34.2581 40.9312 34.2581 40.3888C34.2581 39.7062 33.7821 39.1227 32.9086 38.6332C32.1023 38.1907 30.4907 37.2669 30.4907 37.2669C29.6176 36.6299 29.1799 35.9465 29.1799 34.8205C29.1799 33.8892 29.5063 33.1365 30.1584 32.5638C30.8119 31.99 31.655 31.703 32.6875 31.703C33.7548 31.703 34.7252 31.9879 35.5993 32.5555L35.1553 33.542C34.4074 33.225 33.6699 33.0658 32.9428 33.0658C32.3528 33.0658 31.8981 33.2075 31.5811 33.4924C31.2624 33.7749 31.0653 34.1385 31.0653 34.5816C31.0653 35.2624 31.5517 35.853 32.4498 36.3519C33.2663 36.7947 34.9173 37.7364 34.9173 37.7364C35.8153 38.3722 36.2629 39.05 36.2629 40.1664Z" fill="#F18513"/>
<path fill-rule="evenodd" clip-rule="evenodd" d="M55.7561 28.006C54.6443 27.9782 53.7834 28.0891 53.0613 28.395C52.853 28.4782 52.52 28.4782 52.4915 28.7422C52.6034 28.8531 52.6167 29.0335 52.7147 29.187C52.8809 29.4648 53.172 29.8392 53.4364 30.0342C53.7282 30.2565 54.0199 30.478 54.3259 30.6724C54.8672 31.0072 55.4786 31.2008 56.0057 31.5343C56.3123 31.7285 56.6168 31.9784 56.9233 32.1873C57.0756 32.2983 57.172 32.4792 57.3673 32.5479V32.5058C57.2694 32.3812 57.2421 32.2006 57.1453 32.0609C57.0067 31.9231 56.8675 31.7973 56.7283 31.659C56.3253 31.1173 55.8246 30.6455 55.2842 30.2565C54.8393 29.9501 53.8665 29.5334 53.6866 29.021C53.6866 29.021 53.6721 29.0063 53.6584 28.9926C53.9641 28.9644 54.3259 28.8531 54.6173 28.7688C55.0889 28.6442 55.5196 28.6724 56.0057 28.5477C56.2283 28.4918 56.4506 28.4218 56.6737 28.3535V28.2277C56.4224 27.9782 56.2425 27.6443 55.9787 27.4084C55.2708 26.7974 54.4921 26.2006 53.6866 25.6998C53.2554 25.4219 52.6998 25.2422 52.2413 25.0055C52.0754 24.922 51.7979 24.8809 51.7003 24.7412C51.4501 24.4357 51.3106 24.0334 51.1304 23.6717C50.728 22.9086 50.3383 22.0616 49.9917 21.2546C49.7418 20.7133 49.589 20.172 49.2833 19.6716C47.8519 17.3098 46.2968 15.8799 43.9077 14.4767C43.3936 14.1847 42.7826 14.0597 42.1302 13.9069C41.7824 13.8923 41.4355 13.8653 41.0882 13.8517C40.8656 13.754 40.6431 13.4899 40.449 13.365C39.6569 12.8652 37.6159 11.7819 37.0321 13.2124C36.657 14.1158 37.5877 15.0044 37.9073 15.4629C38.1433 15.782 38.4492 16.1437 38.6151 16.5043C38.7125 16.7406 38.7404 16.991 38.838 17.2406C39.06 17.8517 39.2681 18.5325 39.5604 19.1024C39.7126 19.3941 39.8791 19.7001 40.0735 19.9627C40.1857 20.1165 40.3795 20.185 40.4214 20.4358C40.2276 20.7133 40.2124 21.13 40.1014 21.4775C39.6017 23.0472 39.7957 24.9918 40.5045 26.1445C40.7262 26.4917 41.2547 27.2559 41.9631 26.9635C42.5882 26.7139 42.4493 25.9222 42.6297 25.2281C42.6713 25.0602 42.6434 24.9501 42.7265 24.8391V24.8672C42.9209 25.2556 43.1158 25.6297 43.2963 26.0199C43.7275 26.6998 44.4769 27.4084 45.1025 27.8802C45.4349 28.1312 45.699 28.5611 46.1157 28.7143V28.6724H46.0884C46.0047 28.5477 45.8801 28.4918 45.7688 28.395C45.5189 28.1448 45.2417 27.839 45.0464 27.5614C44.4632 26.7839 43.9486 25.9222 43.4913 25.0333C43.2684 24.6017 43.0743 24.1299 42.8936 23.6995C42.8105 23.5336 42.8105 23.2829 42.6713 23.1998C42.4623 23.505 42.1575 23.7693 42.005 24.1432C41.7409 24.7412 41.7133 25.4772 41.6153 26.2415C41.5601 26.256 41.588 26.2415 41.5601 26.2691C41.1161 26.1581 40.9633 25.6998 40.7962 25.3121C40.3795 24.3246 40.3095 22.7412 40.6713 21.6021C40.768 21.311 41.1859 20.3942 41.0185 20.1165C40.9345 19.8514 40.657 19.7001 40.5045 19.4908C40.3243 19.227 40.1287 18.8943 40.005 18.602C39.6714 17.8244 39.5037 16.9629 39.1437 16.1853C38.9769 15.8235 38.6846 15.4484 38.4492 15.1157C38.1848 14.7405 37.8934 14.4767 37.6847 14.0327C37.6159 13.8796 37.5185 13.6294 37.6292 13.4632C37.6565 13.3519 37.7129 13.3101 37.8242 13.2822C38.0038 13.1293 38.5184 13.3234 38.6985 13.4068C39.2129 13.6146 39.6435 13.8101 40.0735 14.1013C40.2682 14.2405 40.4766 14.5043 40.7262 14.5743H41.0185C41.4628 14.6708 41.9631 14.6014 42.3801 14.7269C43.1158 14.9628 43.7824 15.3101 44.3801 15.6852C46.1991 16.8382 47.6993 18.4776 48.7129 20.4358C48.8799 20.7548 48.95 21.0469 49.1025 21.3796C49.3943 22.0616 49.7557 22.756 50.0469 23.4221C50.3383 24.075 50.6167 24.7412 51.034 25.2837C51.2417 25.5749 52.0754 25.7277 52.4505 25.8806C52.7277 26.0053 53.1589 26.1166 53.4091 26.2691C53.8813 26.5603 54.3526 26.8942 54.7978 27.2142C55.0195 27.3809 55.7142 27.7278 55.7561 28.006Z" fill="#2C7493"/>
<path d="M54.7607 43.3518H55.0655V42.1822H55.4644V41.9433H54.3464V42.1822H54.7607V43.3518ZM57.08 43.3518H57.3673V41.9433H56.9352L56.5835 42.9034L56.2007 41.9433H55.7843V43.3518H56.0561V42.2798H56.0716L56.4725 43.3518H56.6797L57.08 42.2798V43.3518Z" fill="#F18513"/>
</svg>
