<svg width="87" height="76" viewBox="0 0 87 76" fill="none" xmlns="http://www.w3.org/2000/svg">
<path d="M7.252 75.5001H0.7V64.8601H7.252V67.5761H3.416V68.8221H7.252V71.5381H3.416V72.7841H7.252V75.5001ZM18.8683 75.5001H15.5783L13.5483 72.5601L11.5183 75.5001H8.22828L11.8823 70.1521L8.22828 64.8601H11.6023L13.5483 67.7021L15.4803 64.8601H18.8683L15.2143 70.1521L18.8683 75.5001ZM27.6754 68.4581C27.6754 69.1021 27.526 69.6901 27.2274 70.2221C26.938 70.7541 26.5087 71.1787 25.9394 71.4961C25.3794 71.8041 24.7214 71.9581 23.9654 71.9581H22.7754V75.5001H20.0594V64.8601H23.8114C24.586 64.8601 25.2674 65.0234 25.8554 65.3501C26.4434 65.6674 26.8914 66.1014 27.1994 66.6521C27.5167 67.2027 27.6754 67.8047 27.6754 68.4581ZM25.0854 68.3881C25.076 68.1361 24.9547 67.9214 24.7214 67.7441C24.4974 67.5667 24.194 67.4781 23.8114 67.4781H22.8314L22.8174 69.3121H23.7974C24.1987 69.3121 24.5114 69.2234 24.7354 69.0461C24.9687 68.8687 25.0854 68.6494 25.0854 68.3881ZM37.1443 75.5001H34.1623L32.1043 71.9581H31.3203V75.5001H28.6043V64.8601H32.3563C33.0843 64.8601 33.7516 65.0281 34.3583 65.3641C34.965 65.7001 35.441 66.1481 35.7863 66.7081C36.1316 67.2681 36.3043 67.8701 36.3043 68.5141C36.3043 69.6527 35.7956 70.5721 34.7783 71.2721L37.1443 75.5001ZM33.6443 68.4161C33.635 68.1547 33.5136 67.9354 33.2803 67.7581C33.047 67.5714 32.7436 67.4781 32.3703 67.4781H31.3763L31.3623 69.3121H32.4683C32.8416 69.3121 33.131 69.2281 33.3363 69.0601C33.5416 68.8921 33.6443 68.6774 33.6443 68.4161ZM44.6036 75.5001H38.0516V64.8601H44.6036V67.5761H40.7676V68.8221H44.6036V71.5381H40.7676V72.7841H44.6036V75.5001ZM54.0078 72.5601C53.8212 74.6321 52.5052 75.7007 50.0598 75.7661C48.4545 75.7194 47.0638 75.2761 45.8878 74.4361L46.8398 72.2241C48.1372 73.0174 49.2385 73.4047 50.1438 73.3861C50.7972 73.3207 51.1238 73.0314 51.1238 72.5181C51.1238 72.0234 50.5312 71.6594 49.3458 71.4261C46.8352 70.9314 45.6265 69.6994 45.7198 67.7301C45.9532 65.6487 47.3065 64.5847 49.7798 64.5381C51.1518 64.5381 52.3885 64.9161 53.4898 65.6721L52.5798 67.8981C51.7305 67.3381 50.8578 67.0347 49.9618 66.9881C49.5978 66.9881 49.2992 67.0627 49.0658 67.2121C48.8418 67.3614 48.7298 67.5387 48.7298 67.7441C48.7298 67.9774 48.8792 68.2014 49.1778 68.4161C49.4765 68.6307 49.9292 68.7987 50.5358 68.9201C52.9625 69.3961 54.1198 70.6094 54.0078 72.5601ZM63.5782 72.5601C63.3915 74.6321 62.0755 75.7007 59.6302 75.7661C58.0248 75.7194 56.6342 75.2761 55.4582 74.4361L56.4102 72.2241C57.7075 73.0174 58.8088 73.4047 59.7142 73.3861C60.3675 73.3207 60.6942 73.0314 60.6942 72.5181C60.6942 72.0234 60.1015 71.6594 58.9162 71.4261C56.4055 70.9314 55.1968 69.6994 55.2902 67.7301C55.5235 65.6487 56.8768 64.5847 59.3502 64.5381C60.7222 64.5381 61.9588 64.9161 63.0602 65.6721L62.1502 67.8981C61.3008 67.3381 60.4282 67.0347 59.5322 66.9881C59.1682 66.9881 58.8695 67.0627 58.6362 67.2121C58.4122 67.3614 58.3002 67.5387 58.3002 67.7441C58.3002 67.9774 58.4495 68.2014 58.7482 68.4161C59.0468 68.6307 59.4995 68.7987 60.1062 68.9201C62.5328 69.3961 63.6902 70.6094 63.5782 72.5601ZM67.7725 73.9741C67.7725 74.3941 67.6231 74.7534 67.3245 75.0521C67.0258 75.3507 66.6665 75.5001 66.2465 75.5001C65.8265 75.5001 65.4671 75.3507 65.1685 75.0521C64.8698 74.7534 64.7205 74.3941 64.7205 73.9741C64.7205 73.5541 64.8698 73.1947 65.1685 72.8961C65.4671 72.5974 65.8265 72.4481 66.2465 72.4481C66.6665 72.4481 67.0258 72.5974 67.3245 72.8961C67.6231 73.1947 67.7725 73.5541 67.7725 73.9741ZM76.5377 70.5301C76.5377 71.5381 76.309 72.4201 75.8517 73.1761C75.4037 73.9321 74.7923 74.5107 74.0177 74.9121C73.243 75.3041 72.3937 75.5001 71.4697 75.5001C70.359 75.5001 69.3603 75.2107 68.4737 74.6321L69.5937 72.0141C70.0417 72.5461 70.667 72.8121 71.4697 72.8121C72.1323 72.8121 72.683 72.6207 73.1217 72.2381C73.5697 71.8461 73.7937 71.3234 73.7937 70.6701V64.8601H76.4817L76.5377 70.5301ZM85.959 72.5601C85.7723 74.6321 84.4563 75.7007 82.011 75.7661C80.4057 75.7194 79.015 75.2761 77.839 74.4361L78.791 72.2241C80.0883 73.0174 81.1897 73.4047 82.095 73.3861C82.7483 73.3207 83.075 73.0314 83.075 72.5181C83.075 72.0234 82.4823 71.6594 81.297 71.4261C78.7863 70.9314 77.5777 69.6994 77.671 67.7301C77.9043 65.6487 79.2577 64.5847 81.731 64.5381C83.103 64.5381 84.3397 64.9161 85.441 65.6721L84.531 67.8981C83.6817 67.3381 82.809 67.0347 81.913 66.9881C81.549 66.9881 81.2503 67.0627 81.017 67.2121C80.793 67.3614 80.681 67.5387 80.681 67.7441C80.681 67.9774 80.8303 68.2014 81.129 68.4161C81.4277 68.6307 81.8803 68.7987 82.487 68.9201C84.9137 69.3961 86.071 70.6094 85.959 72.5601Z" fill="white"/>
<path d="M46.1062 0.615248C29.8731 -0.879336 14.4992 12.3731 13.1062 28.6152C12.187 39.3346 17.3104 49.9162 25.5 56.107C30.2724 59.7147 36.086 61.8313 42.3518 61.6152C58.1212 61.0715 75.2132 46.3899 74.8518 30.6152C74.5063 15.5384 61.1235 1.99789 46.1062 0.615248Z" fill="#D9D9D9" stroke="black"/>
<path d="M63 41.9066C61.8553 42.3384 60.5676 41.8499 59.9997 40.7684L54.5378 33.2324L53.7458 32.1797L47.4075 40.7796C46.8731 41.8142 45.652 42.2924 44.5549 41.8967L52.7204 30.9673L45.1234 21.0918C46.2506 20.6856 47.5068 21.1265 48.1337 22.1445L53.7942 29.7734L59.4882 22.1742C60.027 21.1566 61.2446 20.7034 62.3197 21.1203L59.3716 25.0227L55.3782 30.2081C54.9084 30.6266 54.9084 31.3599 55.3782 31.7785L62.9839 41.9066H63ZM25.0025 30.831L25.6678 27.5528C27.4951 21.0707 34.9432 18.3734 40.0674 22.3885C43.0678 24.7391 43.8163 28.0693 43.6698 31.8218H26.7664C26.4933 38.5243 31.3408 42.5716 37.5413 40.5059C39.5845 39.7628 41.1226 38.0686 41.629 35.9632C41.9568 34.9105 42.498 34.7297 43.4886 35.0344C43.1538 37.6342 41.6433 39.9376 39.3897 41.2849C35.6198 43.3417 30.9517 42.7465 27.8216 39.8099C26.3121 38.1169 25.401 35.9768 25.2234 33.7166C25.2234 33.3451 25.0993 32.9983 25.0124 32.664C25.0041 32.0389 25 31.428 25 30.831H25.0025ZM26.7875 30.3778H42.0734C41.9779 25.5193 38.9043 22.0727 34.8054 22.0405C30.2422 21.9785 26.9775 25.3496 26.7764 30.3567L26.7875 30.3778Z" fill="black"/>
</svg>
