<svg width="63" height="76" viewBox="0 0 63 76" fill="none" xmlns="http://www.w3.org/2000/svg">
<path d="M8.81602 68.4581C8.81602 69.1021 8.66669 69.6901 8.36802 70.2221C8.07869 70.7541 7.64936 71.1787 7.08002 71.4961C6.52002 71.8041 5.86202 71.9581 5.10602 71.9581H3.91602V75.5001H1.20002V64.8601H4.95202C5.72669 64.8601 6.40802 65.0234 6.99602 65.3501C7.58402 65.6674 8.03202 66.1014 8.34002 66.6521C8.65736 67.2027 8.81602 67.8047 8.81602 68.4581ZM6.22602 68.3881C6.21669 68.1361 6.09536 67.9214 5.86202 67.7441C5.63802 67.5667 5.33469 67.4781 4.95202 67.4781H3.97202L3.95802 69.3121H4.93802C5.33936 69.3121 5.65202 69.2234 5.87602 69.0461C6.10936 68.8687 6.22602 68.6494 6.22602 68.3881ZM19.8949 64.8601L15.9329 70.4461V75.5001H13.1749L13.1889 70.4321L9.25494 64.8601H12.6289L14.5749 67.7021L16.5069 64.8601H19.8949ZM29.2895 67.5761H26.1675V75.5001H23.4515V67.5761H20.3155V64.8601H29.2895V67.5761ZM38.9061 75.5001H36.1901V71.5381H32.9141V75.5001H30.1981V64.8601H32.9141V68.8221H36.1901V64.8601H38.9061V75.5001ZM51.0536 70.1801C51.0536 71.1507 50.8063 72.0561 50.3116 72.8961C49.8169 73.7267 49.1496 74.3941 48.3096 74.8981C47.4696 75.3927 46.5596 75.6401 45.5796 75.6401C44.5903 75.6401 43.6756 75.3927 42.8356 74.8981C41.9956 74.3941 41.3283 73.7267 40.8336 72.8961C40.3389 72.0561 40.0916 71.1507 40.0916 70.1801C40.0916 69.2094 40.3389 68.3087 40.8336 67.4781C41.3283 66.6381 41.9956 65.9707 42.8356 65.4761C43.6756 64.9721 44.5903 64.7201 45.5796 64.7201C46.5596 64.7201 47.4696 64.9721 48.3096 65.4761C49.1496 65.9707 49.8169 66.6381 50.3116 67.4781C50.8063 68.3087 51.0536 69.2094 51.0536 70.1801ZM48.3656 70.1801C48.3656 69.7041 48.2396 69.2561 47.9876 68.8361C47.7356 68.4067 47.3949 68.0661 46.9656 67.8141C46.5363 67.5527 46.0743 67.4221 45.5796 67.4221C45.0849 67.4221 44.6229 67.5527 44.1936 67.8141C43.7643 68.0661 43.4236 68.4067 43.1716 68.8361C42.9196 69.2561 42.7936 69.7041 42.7936 70.1801C42.7936 70.6561 42.9196 71.1087 43.1716 71.5381C43.4236 71.9581 43.7643 72.2987 44.1936 72.5601C44.6229 72.8121 45.0849 72.9381 45.5796 72.9381C46.0743 72.9381 46.5363 72.8121 46.9656 72.5601C47.3949 72.2987 47.7356 71.9581 47.9876 71.5381C48.2396 71.1087 48.3656 70.6561 48.3656 70.1801ZM61.3091 75.5001H58.5931L54.9531 70.1101V75.5001H52.2371V64.8601H54.9531L58.5931 70.8241V64.8601H61.3091V75.5001Z" fill="white"/>
<path d="M33.6063 0.615244C17.3732 -0.87934 1.99918 12.3731 0.60626 28.6152C-0.313026 39.3346 4.81043 49.9162 13 56.107C17.7724 59.7147 23.586 61.8313 29.8518 61.6152C45.6212 61.0715 62.7132 46.3899 62.3518 30.6152C62.0063 15.5384 48.6235 1.99788 33.6063 0.615244Z" fill="#D9D9D9" stroke="black"/>
<path d="M30.7916 12.5003C29.3484 12.507 27.9702 12.6289 26.7575 12.8415C23.1851 13.4666 22.5364 14.7751 22.5364 17.1883V20.3753H30.9786V21.4376H22.5364H19.3682C16.9147 21.4376 14.7663 22.8983 14.0943 25.6772C13.3192 28.8624 13.2848 30.85 14.0943 34.1759C14.6944 36.6515 16.1275 38.4154 18.581 38.4154H21.4836V34.5949C21.4836 31.8349 23.8946 29.4002 26.7575 29.4002H35.1898C37.537 29.4002 39.4109 27.4859 39.4108 25.1509V17.1883C39.4108 14.9221 37.4808 13.2197 35.1898 12.8415C33.7396 12.6023 32.2348 12.4937 30.7916 12.5003ZM26.2262 15.0636C27.0982 15.0636 27.8103 15.7805 27.8103 16.662C27.8103 17.5403 27.0982 18.2506 26.2262 18.2506C25.351 18.2506 24.6421 17.5403 24.6421 16.662C24.6421 15.7805 25.351 15.0636 26.2262 15.0636Z" fill="url(#paint0_linear_1_120)"/>
<path d="M40.4637 21.4376V25.1509C40.4637 28.0298 37.9996 30.4528 35.1898 30.4528H26.7575C24.4478 30.4528 22.5364 32.4109 22.5364 34.7022V42.6648C22.5364 44.931 24.5259 46.264 26.7575 46.9141C29.4298 47.6924 31.9924 47.8331 35.1898 46.9141C37.3151 46.3046 39.4108 45.0779 39.4108 42.6648V39.4778H30.9786V38.4154H39.4108H43.6319C46.0854 38.4154 46.9997 36.7203 47.853 34.1759C48.7344 31.5564 48.6969 29.0374 47.853 25.6772C47.2466 23.2578 46.0885 21.4376 43.6319 21.4376H40.4637ZM35.7211 41.6025C36.5962 41.6025 37.3052 42.3127 37.3052 43.1911C37.3052 44.0726 36.5962 44.7895 35.7211 44.7895C34.8491 44.7895 34.137 44.0726 34.137 43.1911C34.137 42.3127 34.8491 41.6025 35.7211 41.6025Z" fill="url(#paint1_linear_1_120)"/>
<defs>
<linearGradient id="paint0_linear_1_120" x1="13.5" y1="12.5001" x2="32.8107" y2="29.1126" gradientUnits="userSpaceOnUse">
<stop stop-color="#5A9FD4"/>
<stop offset="1" stop-color="#306998"/>
</linearGradient>
<linearGradient id="paint1_linear_1_120" x1="35.5182" y1="42.9231" x2="28.6221" y2="33.1672" gradientUnits="userSpaceOnUse">
<stop stop-color="#FFD43B"/>
<stop offset="1" stop-color="#FFE873"/>
</linearGradient>
</defs>
</svg>
