<svg width="64" height="76" viewBox="0 0 64 76" fill="none" xmlns="http://www.w3.org/2000/svg">
<path d="M9.772 75.5001H7.056L3.416 70.1101V75.5001H0.7V64.8601H3.416L7.056 70.8241V64.8601H9.772V75.5001ZM21.9247 70.1801C21.9247 71.1507 21.6773 72.0561 21.1827 72.8961C20.688 73.7267 20.0207 74.3941 19.1807 74.8981C18.3407 75.3927 17.4307 75.6401 16.4507 75.6401C15.4613 75.6401 14.5467 75.3927 13.7067 74.8981C12.8667 74.3941 12.1993 73.7267 11.7047 72.8961C11.21 72.0561 10.9627 71.1507 10.9627 70.1801C10.9627 69.2094 11.21 68.3087 11.7047 67.4781C12.1993 66.6381 12.8667 65.9707 13.7067 65.4761C14.5467 64.9721 15.4613 64.7201 16.4507 64.7201C17.4307 64.7201 18.3407 64.9721 19.1807 65.4761C20.0207 65.9707 20.688 66.6381 21.1827 67.4781C21.6773 68.3087 21.9247 69.2094 21.9247 70.1801ZM19.2367 70.1801C19.2367 69.7041 19.1107 69.2561 18.8587 68.8361C18.6067 68.4067 18.266 68.0661 17.8367 67.8141C17.4073 67.5527 16.9453 67.4221 16.4507 67.4221C15.956 67.4221 15.494 67.5527 15.0647 67.8141C14.6353 68.0661 14.2947 68.4067 14.0427 68.8361C13.7907 69.2561 13.6647 69.7041 13.6647 70.1801C13.6647 70.6561 13.7907 71.1087 14.0427 71.5381C14.2947 71.9581 14.6353 72.2987 15.0647 72.5601C15.494 72.8121 15.956 72.9381 16.4507 72.9381C16.9453 72.9381 17.4073 72.8121 17.8367 72.5601C18.266 72.2987 18.6067 71.9581 18.8587 71.5381C19.1107 71.1087 19.2367 70.6561 19.2367 70.1801ZM32.4462 70.3061C32.4462 71.2487 32.2222 72.1167 31.7742 72.9101C31.3355 73.7034 30.7009 74.3334 29.8702 74.8001C29.0395 75.2667 28.0735 75.5001 26.9722 75.5001H23.1082V64.8601H26.9722C28.1015 64.8601 29.0769 65.1027 29.8982 65.5881C30.7289 66.0734 31.3589 66.7314 31.7882 67.5621C32.2269 68.3927 32.4462 69.3074 32.4462 70.3061ZM29.7442 70.4461C29.7442 69.6061 29.5062 68.9154 29.0302 68.3741C28.5542 67.8327 27.8682 67.5621 26.9722 67.5621H25.8382V72.7981H26.9722C27.5135 72.7981 27.9942 72.6954 28.4142 72.4901C28.8342 72.2754 29.1609 71.9907 29.3942 71.6361C29.6275 71.2721 29.7442 70.8754 29.7442 70.4461ZM40.1875 75.5001H33.6355V64.8601H40.1875V67.5761H36.3515V68.8221H40.1875V71.5381H36.3515V72.7841H40.1875V75.5001ZM44.2158 73.9741C44.2158 74.3941 44.0665 74.7534 43.7678 75.0521C43.4692 75.3507 43.1098 75.5001 42.6898 75.5001C42.2698 75.5001 41.9105 75.3507 41.6118 75.0521C41.3132 74.7534 41.1638 74.3941 41.1638 73.9741C41.1638 73.5541 41.3132 73.1947 41.6118 72.8961C41.9105 72.5974 42.2698 72.4481 42.6898 72.4481C43.1098 72.4481 43.4692 72.5974 43.7678 72.8961C44.0665 73.1947 44.2158 73.5541 44.2158 73.9741ZM52.981 70.5301C52.981 71.5381 52.7524 72.4201 52.295 73.1761C51.847 73.9321 51.2357 74.5107 50.461 74.9121C49.6864 75.3041 48.837 75.5001 47.913 75.5001C46.8024 75.5001 45.8037 75.2107 44.917 74.6321L46.037 72.0141C46.485 72.5461 47.1104 72.8121 47.913 72.8121C48.5757 72.8121 49.1264 72.6207 49.565 72.2381C50.013 71.8461 50.237 71.3234 50.237 70.6701V64.8601H52.925L52.981 70.5301ZM62.4024 72.5601C62.2157 74.6321 60.8997 75.7007 58.4544 75.7661C56.849 75.7194 55.4584 75.2761 54.2824 74.4361L55.2344 72.2241C56.5317 73.0174 57.633 73.4047 58.5384 73.3861C59.1917 73.3207 59.5184 73.0314 59.5184 72.5181C59.5184 72.0234 58.9257 71.6594 57.7404 71.4261C55.2297 70.9314 54.021 69.6994 54.1144 67.7301C54.3477 65.6487 55.701 64.5847 58.1744 64.5381C59.5464 64.5381 60.783 64.9161 61.8844 65.6721L60.9744 67.8981C60.125 67.3381 59.2524 67.0347 58.3564 66.9881C57.9924 66.9881 57.6937 67.0627 57.4604 67.2121C57.2364 67.3614 57.1244 67.5387 57.1244 67.7441C57.1244 67.9774 57.2737 68.2014 57.5724 68.4161C57.871 68.6307 58.3237 68.7987 58.9304 68.9201C61.357 69.3961 62.5144 70.6094 62.4024 72.5601Z" fill="white"/>
<path d="M34.1062 0.615248C17.8731 -0.879336 2.49916 12.3731 1.10624 28.6152C0.186951 39.3346 5.31041 49.9162 13.5 56.107C18.2724 59.7147 24.086 61.8313 30.3518 61.6152C46.1212 61.0715 63.2132 46.3899 62.8518 30.6152C62.5063 15.5384 49.1235 1.99789 34.1062 0.615248Z" fill="#D9D9D9" stroke="black"/>
<path d="M32.0409 15.7584C31.5843 15.5001 31.0422 15.5001 30.5857 15.7584L18.5733 22.7351C18.1168 22.9935 17.86 23.4815 17.86 23.9984V37.9803C17.86 38.4972 18.1453 38.9851 18.5733 39.2436L30.5857 46.2203C31.0422 46.4786 31.5843 46.4786 32.0409 46.2203L44.0532 39.2436C44.5098 38.9851 44.7665 38.4972 44.7665 37.9803V23.9984C44.7665 23.4815 44.4812 22.9935 44.0532 22.7351L32.0409 15.7584Z" fill="url(#paint0_linear_3_25)"/>
<mask id="mask0_3_25" style="mask-type:luminance" maskUnits="userSpaceOnUse" x="17" y="15" width="28" height="32">
<path d="M32.0409 15.7584C31.5843 15.5001 31.0422 15.5001 30.5857 15.7584L18.5733 22.7351C18.1168 22.9935 17.86 23.4815 17.86 23.9984V37.9803C17.86 38.4972 18.1453 38.9851 18.5733 39.2436L30.5857 46.2203C31.0422 46.4786 31.5843 46.4786 32.0409 46.2203L44.0532 39.2436C44.5098 38.9851 44.7665 38.4972 44.7665 37.9803V23.9984C44.7665 23.4815 44.4812 22.9935 44.0532 22.7351L32.0409 15.7584Z" fill="white"/>
</mask>
<g mask="url(#mask0_3_25)">
<path d="M31.3133 14.8512L44.6473 22.908L31.3133 47.1652L17.9547 39.0942L31.3133 14.8512Z" fill="url(#paint1_linear_3_25)"/>
</g>
<mask id="mask1_3_25" style="mask-type:luminance" maskUnits="userSpaceOnUse" x="17" y="15" width="28" height="32">
<path d="M32.0409 15.7584C31.5843 15.5001 31.0422 15.5001 30.5857 15.7584L18.5733 22.7351C18.1168 22.9935 17.86 23.4815 17.86 23.9984V37.9803C17.86 38.4972 18.1453 38.9851 18.5733 39.2436L30.5857 46.2203C31.0422 46.4786 31.5843 46.4786 32.0409 46.2203L44.0532 39.2436C44.5098 38.9851 44.7665 38.4972 44.7665 37.9803V23.9984C44.7665 23.4815 44.4812 22.9935 44.0532 22.7351L32.0409 15.7584Z" fill="white"/>
</mask>
<g mask="url(#mask1_3_25)">
<path d="M31.3133 14.8512L17.9547 22.908L31.3133 47.1652L44.6473 39.0942L31.3133 14.8512Z" fill="url(#paint2_linear_3_25)"/>
</g>
<defs>
<linearGradient id="paint0_linear_3_25" x1="36.6646" y1="20.8073" x2="27.098" y2="43.2141" gradientUnits="userSpaceOnUse">
<stop stop-color="#3F8B3D"/>
<stop offset="0.64" stop-color="#3F873F"/>
<stop offset="0.93" stop-color="#3DA92E"/>
<stop offset="1" stop-color="#3DAE2B"/>
</linearGradient>
<linearGradient id="paint1_linear_3_25" x1="29.516" y1="32.1161" x2="60.02" y2="15.7481" gradientUnits="userSpaceOnUse">
<stop offset="0.14" stop-color="#3F873F"/>
<stop offset="0.4" stop-color="#52A044"/>
<stop offset="0.71" stop-color="#64B749"/>
<stop offset="0.91" stop-color="#6ABF4B"/>
</linearGradient>
<linearGradient id="paint2_linear_3_25" x1="18.015" y1="30.6901" x2="45.14" y2="30.6901" gradientUnits="userSpaceOnUse">
<stop offset="0.09" stop-color="#6ABF4B"/>
<stop offset="0.29" stop-color="#64B749"/>
<stop offset="0.6" stop-color="#52A044"/>
<stop offset="0.86" stop-color="#3F873F"/>
</linearGradient>
</defs>
</svg>
