<svg width="350" height="37" viewBox="0 0 350 37" fill="none" xmlns="http://www.w3.org/2000/svg">
    <style>
        .tail {
            transition: all 0.3s;
            transform-origin: 282px 26px;

            animation: wiggle 2s infinite linear;
        }

        .hitbox {
            cursor: pointer;
        }

        .tail:hover {
            animation: wiggle-hover 0.3s ease 1;
        }

        @keyframes wiggle {
            0% { transform: rotate(0deg); }
            25% { transform: rotate(7deg); }
            50% { transform: rotate(0deg); }
            75% { transform: rotate(-3deg); }
            100% { transform: rotate(0deg); }
        }

        @keyframes wiggle-hover {
            0% { transform: rotate(0deg); }
            25% { transform: rotate(15deg); }
            50% { transform: rotate(0deg); }
            75% { transform: rotate(-15deg); }
            100% { transform: rotate(0deg); }
        }
    </style>

    // tail
    <g class="tail">
        <path
            d="M306.702 15.9815C305.272 15.6631 302.003 12.2565 300.492 12.2946C299.711 12.3142 295.419 15.997 291.453 19.5523C291.453 19.5523 290.798 20.4926 291.083 21.0016C291.322 21.4286 292.084 21.0711 292.217 21.542C292.338 21.9732 291.492 22.1546 291.681 22.5606C291.86 22.9438 292.457 22.5373 292.725 22.8648C293.018 23.2231 292.47 23.6768 292.744 24.05C293.027 24.436 293.696 23.9886 293.918 24.4123C294.056 24.6754 293.938 25.1733 293.938 25.1733C296.658 23.1053 299.384 21.208 300.295 21.1513C302.318 21.0254 303.288 24.1219 305.098 24.2944C306.908 24.4669 329.379 14.8655 330.282 12.6758C331.185 10.4862 320.968 0.477685 320.486 0.500037C320.004 0.522389 308.132 16.2998 306.702 15.9815Z"
            fill="#FAD61D" />
        <path
            d="M282.942 26.6926L286.666 29.4184C286.666 29.4184 290.619 27.6961 293.938 25.1733C293.938 25.1733 294.056 24.6754 293.918 24.4123C293.696 23.9886 293.027 24.436 292.744 24.05C292.47 23.6768 293.018 23.2231 292.725 22.8648C292.457 22.5373 291.86 22.9438 291.681 22.5606C291.492 22.1546 292.338 21.9732 292.217 21.542C292.084 21.0711 291.322 21.4286 291.083 21.0016C290.798 20.4926 291.453 19.5523 291.453 19.5523C287.743 22.8778 282.942 26.6926 282.942 26.6926Z"
            fill="#811E09" />
        <path
            d="M293.938 25.1733C296.658 23.1053 299.384 21.208 300.295 21.1513C302.318 21.0254 303.288 24.1219 305.098 24.2944C306.908 24.4669 329.379 14.8655 330.282 12.6758C331.185 10.4862 320.968 0.477685 320.486 0.500037C320.004 0.52239 308.132 16.2998 306.702 15.9815C305.272 15.6631 302.003 12.2565 300.492 12.2946C299.711 12.3142 295.419 15.997 291.453 19.5523M293.938 25.1733C290.619 27.6961 286.666 29.4184 286.666 29.4184L282.942 26.6926C282.942 26.6926 287.743 22.8778 291.453 19.5523M293.938 25.1733C293.938 25.1733 294.056 24.6754 293.918 24.4123C293.696 23.9886 293.027 24.436 292.744 24.05C292.47 23.6768 293.018 23.2231 292.725 22.8648C292.457 22.5373 291.86 22.9438 291.681 22.5606C291.492 22.1546 292.338 21.9732 292.217 21.542C292.084 21.0711 291.322 21.4286 291.083 21.0016C290.798 20.4926 291.453 19.5523 291.453 19.5523"
            stroke="black" />

        <rect class="hitbox" x="280" y="0" width="70" height="37" fill="transparent" pointer-events="all" />
    </g>


    <mask id="path-3-outside-1_0_1" maskUnits="userSpaceOnUse" x="0" y="2.88403" width="295" height="34" fill="black">
        <rect fill="white" y="2.88403" width="295" height="34" />
        <path
            d="M22.76 14.564C22.76 16.404 22.3333 18.084 21.48 19.604C20.6533 21.124 19.4267 22.3374 17.8 23.244C16.2 24.124 14.32 24.564 12.16 24.564H8.76V34.684H1V4.28403H11.72C13.9333 4.28403 15.88 4.7507 17.56 5.68403C19.24 6.5907 20.52 7.8307 21.4 9.40403C22.3067 10.9774 22.76 12.6974 22.76 14.564ZM15.36 14.364C15.3333 13.644 14.9867 13.0307 14.32 12.524C13.68 12.0174 12.8133 11.764 11.72 11.764H8.92L8.88 17.004H11.68C12.8267 17.004 13.72 16.7507 14.36 16.244C15.0267 15.7374 15.36 15.1107 15.36 14.364Z" />
        <path
            d="M56.1341 19.484C56.1341 22.2574 55.4274 24.844 54.0141 27.244C52.6007 29.6174 50.6941 31.524 48.2941 32.964C45.8941 34.3774 43.2941 35.084 40.4941 35.084C37.6674 35.084 35.0541 34.3774 32.6541 32.964C30.2541 31.524 28.3474 29.6174 26.9341 27.244C25.5207 24.844 24.8141 22.2574 24.8141 19.484C24.8141 16.7107 25.5207 14.1374 26.9341 11.764C28.3474 9.36403 30.2541 7.45737 32.6541 6.04403C35.0541 4.60403 37.6674 3.88403 40.4941 3.88403C43.2941 3.88403 45.8941 4.60403 48.2941 6.04403C50.6941 7.45737 52.6007 9.36403 54.0141 11.764C55.4274 14.1374 56.1341 16.7107 56.1341 19.484ZM48.4541 19.484C48.4541 18.124 48.0941 16.844 47.3741 15.644C46.6541 14.4174 45.6807 13.444 44.4541 12.724C43.2274 11.9774 41.9074 11.604 40.4941 11.604C39.0807 11.604 37.7607 11.9774 36.5341 12.724C35.3074 13.444 34.3341 14.4174 33.6141 15.644C32.8941 16.844 32.5341 18.124 32.5341 19.484C32.5341 20.844 32.8941 22.1374 33.6141 23.364C34.3341 24.564 35.3074 25.5374 36.5341 26.284C37.7607 27.004 39.0807 27.364 40.4941 27.364C41.9074 27.364 43.2274 27.004 44.4541 26.284C45.6807 25.5374 46.6541 24.564 47.3741 23.364C48.0941 22.1374 48.4541 20.844 48.4541 19.484Z" />
        <path
            d="M86.4356 4.28403L75.1156 19.764L86.1556 34.684H76.5156L67.2756 21.364V34.684H59.5156V4.28403H67.2756V17.044L77.3156 4.28403H86.4356Z" />
        <path
            d="M107.767 34.684H89.0469V4.28403H107.767V12.044H96.8069V15.604H107.767V23.364H96.8069V26.924H107.767V34.684Z" />
        <path
            d="M146.076 34.684H138.316V19.284L128.636 33.644L118.916 19.284V34.684H111.156V4.28403H118.916L128.636 20.164L138.316 4.28403H146.076V34.684Z" />
        <path
            d="M177.982 34.684H169.663L167.943 29.964H158.663L156.982 34.684H148.663L159.982 4.28403H166.663L177.982 34.684ZM165.743 23.924L163.303 17.204L160.902 23.924H165.743Z" />
        <path d="M204.81 12.044H195.89V34.684H188.13V12.044H179.17V4.28403H204.81V12.044Z" />
        <path
            d="M229.166 14.564C229.166 16.404 228.74 18.084 227.886 19.604C227.06 21.124 225.833 22.3374 224.206 23.244C222.606 24.124 220.726 24.564 218.566 24.564H215.166V34.684H207.406V4.28403H218.126C220.34 4.28403 222.286 4.7507 223.966 5.68403C225.646 6.5907 226.926 7.8307 227.806 9.40403C228.713 10.9774 229.166 12.6974 229.166 14.564ZM221.766 14.364C221.74 13.644 221.393 13.0307 220.726 12.524C220.086 12.0174 219.22 11.764 218.126 11.764H215.326L215.286 17.004H218.086C219.233 17.004 220.126 16.7507 220.766 16.244C221.433 15.7374 221.766 15.1107 221.766 14.364Z" />
        <path
            d="M262.54 19.484C262.54 22.2574 261.834 24.844 260.42 27.244C259.007 29.6174 257.1 31.524 254.7 32.964C252.3 34.3774 249.7 35.084 246.9 35.084C244.074 35.084 241.46 34.3774 239.06 32.964C236.66 31.524 234.754 29.6174 233.34 27.244C231.927 24.844 231.22 22.2574 231.22 19.484C231.22 16.7107 231.927 14.1374 233.34 11.764C234.754 9.36403 236.66 7.45737 239.06 6.04403C241.46 4.60403 244.074 3.88403 246.9 3.88403C249.7 3.88403 252.3 4.60403 254.7 6.04403C257.1 7.45737 259.007 9.36403 260.42 11.764C261.834 14.1374 262.54 16.7107 262.54 19.484ZM254.86 19.484C254.86 18.124 254.5 16.844 253.78 15.644C253.06 14.4174 252.087 13.444 250.86 12.724C249.634 11.9774 248.314 11.604 246.9 11.604C245.487 11.604 244.167 11.9774 242.94 12.724C241.714 13.444 240.74 14.4174 240.02 15.644C239.3 16.844 238.94 18.124 238.94 19.484C238.94 20.844 239.3 22.1374 240.02 23.364C240.74 24.564 241.714 25.5374 242.94 26.284C244.167 27.004 245.487 27.364 246.9 27.364C248.314 27.364 249.634 27.004 250.86 26.284C252.087 25.5374 253.06 24.564 253.78 23.364C254.5 22.1374 254.86 20.844 254.86 19.484Z" />
        <path
            d="M292.842 4.28403L281.522 19.764L292.562 34.684H282.922L273.682 21.364V34.684H265.922V4.28403H273.682V17.044L283.722 4.28403H292.842Z" />
    </mask>
    <path
        d="M22.76 14.564C22.76 16.404 22.3333 18.084 21.48 19.604C20.6533 21.124 19.4267 22.3374 17.8 23.244C16.2 24.124 14.32 24.564 12.16 24.564H8.76V34.684H1V4.28403H11.72C13.9333 4.28403 15.88 4.7507 17.56 5.68403C19.24 6.5907 20.52 7.8307 21.4 9.40403C22.3067 10.9774 22.76 12.6974 22.76 14.564ZM15.36 14.364C15.3333 13.644 14.9867 13.0307 14.32 12.524C13.68 12.0174 12.8133 11.764 11.72 11.764H8.92L8.88 17.004H11.68C12.8267 17.004 13.72 16.7507 14.36 16.244C15.0267 15.7374 15.36 15.1107 15.36 14.364Z"
        fill="white" />
    <path
        d="M56.1341 19.484C56.1341 22.2574 55.4274 24.844 54.0141 27.244C52.6007 29.6174 50.6941 31.524 48.2941 32.964C45.8941 34.3774 43.2941 35.084 40.4941 35.084C37.6674 35.084 35.0541 34.3774 32.6541 32.964C30.2541 31.524 28.3474 29.6174 26.9341 27.244C25.5207 24.844 24.8141 22.2574 24.8141 19.484C24.8141 16.7107 25.5207 14.1374 26.9341 11.764C28.3474 9.36403 30.2541 7.45737 32.6541 6.04403C35.0541 4.60403 37.6674 3.88403 40.4941 3.88403C43.2941 3.88403 45.8941 4.60403 48.2941 6.04403C50.6941 7.45737 52.6007 9.36403 54.0141 11.764C55.4274 14.1374 56.1341 16.7107 56.1341 19.484ZM48.4541 19.484C48.4541 18.124 48.0941 16.844 47.3741 15.644C46.6541 14.4174 45.6807 13.444 44.4541 12.724C43.2274 11.9774 41.9074 11.604 40.4941 11.604C39.0807 11.604 37.7607 11.9774 36.5341 12.724C35.3074 13.444 34.3341 14.4174 33.6141 15.644C32.8941 16.844 32.5341 18.124 32.5341 19.484C32.5341 20.844 32.8941 22.1374 33.6141 23.364C34.3341 24.564 35.3074 25.5374 36.5341 26.284C37.7607 27.004 39.0807 27.364 40.4941 27.364C41.9074 27.364 43.2274 27.004 44.4541 26.284C45.6807 25.5374 46.6541 24.564 47.3741 23.364C48.0941 22.1374 48.4541 20.844 48.4541 19.484Z"
        fill="white" />
    <path
        d="M86.4356 4.28403L75.1156 19.764L86.1556 34.684H76.5156L67.2756 21.364V34.684H59.5156V4.28403H67.2756V17.044L77.3156 4.28403H86.4356Z"
        fill="white" />
    <path
        d="M107.767 34.684H89.0469V4.28403H107.767V12.044H96.8069V15.604H107.767V23.364H96.8069V26.924H107.767V34.684Z"
        fill="white" />
    <path
        d="M146.076 34.684H138.316V19.284L128.636 33.644L118.916 19.284V34.684H111.156V4.28403H118.916L128.636 20.164L138.316 4.28403H146.076V34.684Z"
        fill="white" />
    <path
        d="M177.982 34.684H169.663L167.943 29.964H158.663L156.982 34.684H148.663L159.982 4.28403H166.663L177.982 34.684ZM165.743 23.924L163.303 17.204L160.902 23.924H165.743Z"
        fill="white" />
    <path d="M204.81 12.044H195.89V34.684H188.13V12.044H179.17V4.28403H204.81V12.044Z" fill="white" />
    <path
        d="M229.166 14.564C229.166 16.404 228.74 18.084 227.886 19.604C227.06 21.124 225.833 22.3374 224.206 23.244C222.606 24.124 220.726 24.564 218.566 24.564H215.166V34.684H207.406V4.28403H218.126C220.34 4.28403 222.286 4.7507 223.966 5.68403C225.646 6.5907 226.926 7.8307 227.806 9.40403C228.713 10.9774 229.166 12.6974 229.166 14.564ZM221.766 14.364C221.74 13.644 221.393 13.0307 220.726 12.524C220.086 12.0174 219.22 11.764 218.126 11.764H215.326L215.286 17.004H218.086C219.233 17.004 220.126 16.7507 220.766 16.244C221.433 15.7374 221.766 15.1107 221.766 14.364Z"
        fill="white" />
    <path
        d="M262.54 19.484C262.54 22.2574 261.834 24.844 260.42 27.244C259.007 29.6174 257.1 31.524 254.7 32.964C252.3 34.3774 249.7 35.084 246.9 35.084C244.074 35.084 241.46 34.3774 239.06 32.964C236.66 31.524 234.754 29.6174 233.34 27.244C231.927 24.844 231.22 22.2574 231.22 19.484C231.22 16.7107 231.927 14.1374 233.34 11.764C234.754 9.36403 236.66 7.45737 239.06 6.04403C241.46 4.60403 244.074 3.88403 246.9 3.88403C249.7 3.88403 252.3 4.60403 254.7 6.04403C257.1 7.45737 259.007 9.36403 260.42 11.764C261.834 14.1374 262.54 16.7107 262.54 19.484ZM254.86 19.484C254.86 18.124 254.5 16.844 253.78 15.644C253.06 14.4174 252.087 13.444 250.86 12.724C249.634 11.9774 248.314 11.604 246.9 11.604C245.487 11.604 244.167 11.9774 242.94 12.724C241.714 13.444 240.74 14.4174 240.02 15.644C239.3 16.844 238.94 18.124 238.94 19.484C238.94 20.844 239.3 22.1374 240.02 23.364C240.74 24.564 241.714 25.5374 242.94 26.284C244.167 27.004 245.487 27.364 246.9 27.364C248.314 27.364 249.634 27.004 250.86 26.284C252.087 25.5374 253.06 24.564 253.78 23.364C254.5 22.1374 254.86 20.844 254.86 19.484Z"
        fill="white" />
    <path
        d="M292.842 4.28403L281.522 19.764L292.562 34.684H282.922L273.682 21.364V34.684H265.922V4.28403H273.682V17.044L283.722 4.28403H292.842Z"
        fill="white" />
    <path
        d="M22.76 14.564C22.76 16.404 22.3333 18.084 21.48 19.604C20.6533 21.124 19.4267 22.3374 17.8 23.244C16.2 24.124 14.32 24.564 12.16 24.564H8.76V34.684H1V4.28403H11.72C13.9333 4.28403 15.88 4.7507 17.56 5.68403C19.24 6.5907 20.52 7.8307 21.4 9.40403C22.3067 10.9774 22.76 12.6974 22.76 14.564ZM15.36 14.364C15.3333 13.644 14.9867 13.0307 14.32 12.524C13.68 12.0174 12.8133 11.764 11.72 11.764H8.92L8.88 17.004H11.68C12.8267 17.004 13.72 16.7507 14.36 16.244C15.0267 15.7374 15.36 15.1107 15.36 14.364Z"
        stroke="black" stroke-width="2" mask="url(#path-3-outside-1_0_1)" />
    <path
        d="M56.1341 19.484C56.1341 22.2574 55.4274 24.844 54.0141 27.244C52.6007 29.6174 50.6941 31.524 48.2941 32.964C45.8941 34.3774 43.2941 35.084 40.4941 35.084C37.6674 35.084 35.0541 34.3774 32.6541 32.964C30.2541 31.524 28.3474 29.6174 26.9341 27.244C25.5207 24.844 24.8141 22.2574 24.8141 19.484C24.8141 16.7107 25.5207 14.1374 26.9341 11.764C28.3474 9.36403 30.2541 7.45737 32.6541 6.04403C35.0541 4.60403 37.6674 3.88403 40.4941 3.88403C43.2941 3.88403 45.8941 4.60403 48.2941 6.04403C50.6941 7.45737 52.6007 9.36403 54.0141 11.764C55.4274 14.1374 56.1341 16.7107 56.1341 19.484ZM48.4541 19.484C48.4541 18.124 48.0941 16.844 47.3741 15.644C46.6541 14.4174 45.6807 13.444 44.4541 12.724C43.2274 11.9774 41.9074 11.604 40.4941 11.604C39.0807 11.604 37.7607 11.9774 36.5341 12.724C35.3074 13.444 34.3341 14.4174 33.6141 15.644C32.8941 16.844 32.5341 18.124 32.5341 19.484C32.5341 20.844 32.8941 22.1374 33.6141 23.364C34.3341 24.564 35.3074 25.5374 36.5341 26.284C37.7607 27.004 39.0807 27.364 40.4941 27.364C41.9074 27.364 43.2274 27.004 44.4541 26.284C45.6807 25.5374 46.6541 24.564 47.3741 23.364C48.0941 22.1374 48.4541 20.844 48.4541 19.484Z"
        stroke="black" stroke-width="2" mask="url(#path-3-outside-1_0_1)" />
    <path
        d="M86.4356 4.28403L75.1156 19.764L86.1556 34.684H76.5156L67.2756 21.364V34.684H59.5156V4.28403H67.2756V17.044L77.3156 4.28403H86.4356Z"
        stroke="black" stroke-width="2" mask="url(#path-3-outside-1_0_1)" />
    <path
        d="M107.767 34.684H89.0469V4.28403H107.767V12.044H96.8069V15.604H107.767V23.364H96.8069V26.924H107.767V34.684Z"
        stroke="black" stroke-width="2" mask="url(#path-3-outside-1_0_1)" />
    <path
        d="M146.076 34.684H138.316V19.284L128.636 33.644L118.916 19.284V34.684H111.156V4.28403H118.916L128.636 20.164L138.316 4.28403H146.076V34.684Z"
        stroke="black" stroke-width="2" mask="url(#path-3-outside-1_0_1)" />
    <path
        d="M177.982 34.684H169.663L167.943 29.964H158.663L156.982 34.684H148.663L159.982 4.28403H166.663L177.982 34.684ZM165.743 23.924L163.303 17.204L160.902 23.924H165.743Z"
        stroke="black" stroke-width="2" mask="url(#path-3-outside-1_0_1)" />
    <path d="M204.81 12.044H195.89V34.684H188.13V12.044H179.17V4.28403H204.81V12.044Z" stroke="black" stroke-width="2"
        mask="url(#path-3-outside-1_0_1)" />
    <path
        d="M229.166 14.564C229.166 16.404 228.74 18.084 227.886 19.604C227.06 21.124 225.833 22.3374 224.206 23.244C222.606 24.124 220.726 24.564 218.566 24.564H215.166V34.684H207.406V4.28403H218.126C220.34 4.28403 222.286 4.7507 223.966 5.68403C225.646 6.5907 226.926 7.8307 227.806 9.40403C228.713 10.9774 229.166 12.6974 229.166 14.564ZM221.766 14.364C221.74 13.644 221.393 13.0307 220.726 12.524C220.086 12.0174 219.22 11.764 218.126 11.764H215.326L215.286 17.004H218.086C219.233 17.004 220.126 16.7507 220.766 16.244C221.433 15.7374 221.766 15.1107 221.766 14.364Z"
        stroke="black" stroke-width="2" mask="url(#path-3-outside-1_0_1)" />
    <path
        d="M262.54 19.484C262.54 22.2574 261.834 24.844 260.42 27.244C259.007 29.6174 257.1 31.524 254.7 32.964C252.3 34.3774 249.7 35.084 246.9 35.084C244.074 35.084 241.46 34.3774 239.06 32.964C236.66 31.524 234.754 29.6174 233.34 27.244C231.927 24.844 231.22 22.2574 231.22 19.484C231.22 16.7107 231.927 14.1374 233.34 11.764C234.754 9.36403 236.66 7.45737 239.06 6.04403C241.46 4.60403 244.074 3.88403 246.9 3.88403C249.7 3.88403 252.3 4.60403 254.7 6.04403C257.1 7.45737 259.007 9.36403 260.42 11.764C261.834 14.1374 262.54 16.7107 262.54 19.484ZM254.86 19.484C254.86 18.124 254.5 16.844 253.78 15.644C253.06 14.4174 252.087 13.444 250.86 12.724C249.634 11.9774 248.314 11.604 246.9 11.604C245.487 11.604 244.167 11.9774 242.94 12.724C241.714 13.444 240.74 14.4174 240.02 15.644C239.3 16.844 238.94 18.124 238.94 19.484C238.94 20.844 239.3 22.1374 240.02 23.364C240.74 24.564 241.714 25.5374 242.94 26.284C244.167 27.004 245.487 27.364 246.9 27.364C248.314 27.364 249.634 27.004 250.86 26.284C252.087 25.5374 253.06 24.564 253.78 23.364C254.5 22.1374 254.86 20.844 254.86 19.484Z"
        stroke="black" stroke-width="2" mask="url(#path-3-outside-1_0_1)" />
    <path
        d="M292.842 4.28403L281.522 19.764L292.562 34.684H282.922L273.682 21.364V34.684H265.922V4.28403H273.682V17.044L283.722 4.28403H292.842Z"
        stroke="black" stroke-width="2" mask="url(#path-3-outside-1_0_1)" />
</svg>