<svg width="206" height="55" viewBox="0 0 206 55" fill="none" xmlns="http://www.w3.org/2000/svg">
<path d="M4.61741 44.5L202.016 44.5C202.016 44.5 209.855 12.1687 202.016 5.27844C194.177 -1.61183 13.8816 -0.551785 4.61741 5.27844C-4.64681 11.1087 4.61741 44.5 4.61741 44.5Z" fill="#EA6200" stroke="black"/>
<path d="M36.12 16.3L31.18 31.5H27.84L24.96 22.68L22.1 31.5H18.74L13.8 16.3H17.96L20.42 25.04L22.9 16.3H27.04L29.5 25.04L31.98 16.3H36.12ZM52.7896 23.9C52.7896 25.2867 52.4363 26.58 51.7296 27.78C51.023 28.9667 50.0696 29.92 48.8696 30.64C47.6696 31.3467 46.3696 31.7 44.9696 31.7C43.5563 31.7 42.2496 31.3467 41.0496 30.64C39.8496 29.92 38.8963 28.9667 38.1896 27.78C37.483 26.58 37.1296 25.2867 37.1296 23.9C37.1296 22.5133 37.483 21.2267 38.1896 20.04C38.8963 18.84 39.8496 17.8867 41.0496 17.18C42.2496 16.46 43.5563 16.1 44.9696 16.1C46.3696 16.1 47.6696 16.46 48.8696 17.18C50.0696 17.8867 51.023 18.84 51.7296 20.04C52.4363 21.2267 52.7896 22.5133 52.7896 23.9ZM48.9496 23.9C48.9496 23.22 48.7696 22.58 48.4096 21.98C48.0496 21.3667 47.563 20.88 46.9496 20.52C46.3363 20.1467 45.6763 19.96 44.9696 19.96C44.263 19.96 43.603 20.1467 42.9896 20.52C42.3763 20.88 41.8896 21.3667 41.5296 21.98C41.1696 22.58 40.9896 23.22 40.9896 23.9C40.9896 24.58 41.1696 25.2267 41.5296 25.84C41.8896 26.44 42.3763 26.9267 42.9896 27.3C43.603 27.66 44.263 27.84 44.9696 27.84C45.6763 27.84 46.3363 27.66 46.9496 27.3C47.563 26.9267 48.0496 26.44 48.4096 25.84C48.7696 25.2267 48.9496 24.58 48.9496 23.9ZM66.6804 31.5H62.4204L59.4804 26.44H58.3604V31.5H54.4804V16.3H59.8404C60.8804 16.3 61.8338 16.54 62.7004 17.02C63.5671 17.5 64.2471 18.14 64.7404 18.94C65.2338 19.74 65.4804 20.6 65.4804 21.52C65.4804 23.1467 64.7538 24.46 63.3004 25.46L66.6804 31.5ZM61.6804 21.38C61.6671 21.0067 61.4938 20.6933 61.1604 20.44C60.8271 20.1733 60.3938 20.04 59.8604 20.04H58.4404L58.4204 22.66H60.0004C60.5338 22.66 60.9471 22.54 61.2404 22.3C61.5338 22.06 61.6804 21.7533 61.6804 21.38ZM81.4365 16.3L75.7765 24.04L81.2965 31.5H76.4765L71.8565 24.84V31.5H67.9765V16.3H71.8565V22.68L76.8765 16.3H81.4365ZM86.6221 31.5H82.7421V16.3H86.6221V31.5ZM101.581 31.5H97.7011L92.5011 23.8V31.5H88.621V16.3H92.5011L97.7011 24.82V16.3H101.581V31.5ZM117.942 28.7C116.089 30.7 113.815 31.7 111.122 31.7C109.802 31.7 108.535 31.34 107.322 30.62C106.109 29.8867 105.129 28.92 104.382 27.72C103.649 26.52 103.282 25.2467 103.282 23.9C103.282 22.5133 103.635 21.2267 104.342 20.04C105.049 18.84 106.002 17.8867 107.202 17.18C108.402 16.46 109.709 16.1 111.122 16.1C112.589 16.1 113.955 16.4733 115.222 17.22L113.662 20.84C112.915 20.2533 112.069 19.96 111.122 19.96C110.415 19.96 109.755 20.1467 109.142 20.52C108.529 20.88 108.042 21.3667 107.682 21.98C107.322 22.58 107.142 23.22 107.142 23.9C107.142 24.54 107.349 25.1667 107.762 25.78C108.175 26.38 108.695 26.8733 109.322 27.26C109.949 27.6467 110.549 27.84 111.122 27.84C111.789 27.84 112.309 27.76 112.682 27.6C113.069 27.44 113.529 27.14 114.062 26.7V26.2H112.602V22.3H117.942V28.7ZM141.598 23.9C141.598 25.2867 141.245 26.58 140.538 27.78C139.832 28.9667 138.878 29.92 137.678 30.64C136.478 31.3467 135.178 31.7 133.778 31.7C132.365 31.7 131.058 31.3467 129.858 30.64C128.658 29.92 127.705 28.9667 126.998 27.78C126.292 26.58 125.938 25.2867 125.938 23.9C125.938 22.5133 126.292 21.2267 126.998 20.04C127.705 18.84 128.658 17.8867 129.858 17.18C131.058 16.46 132.365 16.1 133.778 16.1C135.178 16.1 136.478 16.46 137.678 17.18C138.878 17.8867 139.832 18.84 140.538 20.04C141.245 21.2267 141.598 22.5133 141.598 23.9ZM137.758 23.9C137.758 23.22 137.578 22.58 137.218 21.98C136.858 21.3667 136.372 20.88 135.758 20.52C135.145 20.1467 134.485 19.96 133.778 19.96C133.072 19.96 132.412 20.1467 131.798 20.52C131.185 20.88 130.698 21.3667 130.338 21.98C129.978 22.58 129.798 23.22 129.798 23.9C129.798 24.58 129.978 25.2267 130.338 25.84C130.698 26.44 131.185 26.9267 131.798 27.3C132.412 27.66 133.072 27.84 133.778 27.84C134.485 27.84 135.145 27.66 135.758 27.3C136.372 26.9267 136.858 26.44 137.218 25.84C137.578 25.2267 137.758 24.58 137.758 23.9ZM156.249 31.5H152.369L147.169 23.8V31.5H143.289V16.3H147.169L152.369 24.82V16.3H156.249V31.5Z" fill="white"/>
<path d="M191.846 19.2917C189.374 23.0181 182.927 30.3928 179.901 30.4189C176.875 30.445 169.897 21.6342 167.72 18.8482C167.72 18.8482 169.136 16.5032 170.506 16.6715C173.484 17.0371 177.45 25.7678 180.51 25.4562C182.551 25.2484 186.387 18.6214 188.677 16.3838C189.878 15.2098 192.775 17.8921 191.846 19.2917Z" fill="#F2C587" stroke="black"/>
</svg>
